<svg id="visual" viewBox="0 0 900 600" width="900" height="600" opacity=".7" xmlns="http://www.w3.org/2000/svg" xmlns:xlink="http://www.w3.org/1999/xlink" version="1.1"><rect x="0" y="0" width="900" height="600" fill="#fff"></rect><defs><linearGradient id="grad1_0" x1="33.3%" y1="0%" x2="100%" y2="100%"><stop offset="20%" stop-color="#ffffff" stop-opacity="1"></stop><stop offset="80%" stop-color="#ffffff" stop-opacity="1"></stop></linearGradient></defs><defs><linearGradient id="grad2_0" x1="0%" y1="0%" x2="66.7%" y2="100%"><stop offset="20%" stop-color="#ffffff" stop-opacity="1"></stop><stop offset="80%" stop-color="#ffffff" stop-opacity="1"></stop></linearGradient></defs><g transform="translate(900, 0)"><path d="M0 405.6C-45.9 352.3 -91.8 299.1 -157 271.9C-222.2 244.8 -306.6 243.8 -351.3 202.8C-395.9 161.8 -400.8 80.9 -405.6 0L0 0Z" fill="#023e8a"></path></g><g transform="translate(0, 600)"><path d="M0 -405.6C80.6 -400.6 161.2 -395.5 202.8 -351.3C244.5 -307 247.2 -223.6 274.5 -158.5C301.8 -93.4 353.7 -46.7 405.6 0L0 0Z" fill="#023e8a"></path></g></svg>