<svg xmlns="http://www.w3.org/2000/svg" width="136" height="135" viewBox="0 0 136 135"><g><g><g><g transform="rotate(-.133 78 131.5)"><path fill="#e8e8e8" d="M45.434 131.72c0-1.765 14.638-3.196 32.694-3.196 18.057 0 32.694 1.431 32.694 3.197s-14.637 3.197-32.694 3.197c-18.056 0-32.694-1.431-32.694-3.197z"/></g><g><g><path fill="#333" d="M90.686 42.076h-5.738V35.88a1.567 1.567 0 0 0 1.24-1.531V21.883c0-.865-.7-1.565-1.565-1.565H60.706a1.566 1.566 0 0 0-1.405 2.255l3.058 6.232c.262.537.808.876 1.405.876h6.955l1.242 6.198v6.197h-5.74c-.864 0-1.565.7-1.565 1.565v7.376c0 .865.7 1.566 1.565 1.566h24.465c.865 0 1.566-.7 1.566-1.566V43.64c0-.864-.701-1.565-1.566-1.565z"/></g><g><g><path fill="#1e1e1d" d="M79.196 34.348h-1.24v7.715h7.86s.256-6.834.354-7.48v-12.93a1.565 1.565 0 0 0-1.547-1.335h-5.427z"/></g><g><path fill="#1e1e1d" d="M85.881 50.86l6.37.158V43.64c0-.864-.7-1.565-1.565-1.565h-4.87z"/></g></g><g><path fill="#d4efff" d="M92.201 50.255H64.606c-5.192 4.19-8.155 10.369-8.155 17.073v61.97c0 .866.7 1.567 1.565 1.567h40.775c.864 0 1.565-.7 1.565-1.566v-61.97c0-6.705-2.963-12.883-8.155-17.074z"/></g><g><path fill="#b7b7b7" d="M92.252 50.255h-7.794c5.193 4.19 8.156 10.369 8.156 17.073V130.865h6.227c.865 0 1.566-.702 1.566-1.566v-61.97c0-6.705-2.962-12.883-8.155-17.074z"/></g><g><path fill="#1193f4" d="M66.412 88.98c0-6.595 5.346-11.942 11.94-11.942 6.596 0 11.942 5.347 11.942 11.942 0 6.594-5.346 11.94-11.941 11.94-6.595 0-11.941-5.346-11.941-11.94z"/></g></g><g><g><path fill="#db5c6e" d="M75.004 33.887l-1.511-.9a19.79 19.79 0 0 1-3.753-3.32c-.027 0-.049.007-.076.007-.05 0-2.7-.011-2.852-.007a21.559 21.559 0 0 0 5.414 5.253c.019.011.037.024.056.034l1.54.918a1.154 1.154 0 1 0 1.182-1.985z"/></g><g><path fill="#db5c6e" d="M85.253 36.603a60.62 60.62 0 0 0-.843-2.27 81.846 81.846 0 0 0-.8-1.972c-1.029-2.446-2.107-4.692-3.206-6.68-.31-.562-.622-1.1-.934-1.612-1.457-2.405-2.913-4.28-4.345-5.59-2.411-2.205-4.25-3.144-6.537-2.25-1.9.743-3.548 2.27-4.224 4.087.483.003 2.041-.002 2.532-.002l.03.003c.577-.851 1.514-1.55 2.503-1.937 3.094-1.208 5.903 3.34 8.055 6.87.33.542.63 1.067.9 1.55 1.058 1.915 2.099 4.087 3.096 6.457a80.323 80.323 0 0 1 1.066 2.668 13.793 13.793 0 0 1-2.23-.164 1.155 1.155 0 0 0-.355 2.283c1.458.224 2.918.252 4.339.079a1.152 1.152 0 0 0 .953-1.52z"/></g><g><path fill="#253680" d="M75.004 33.887l-1.512-.9a19.82 19.82 0 0 1-3.753-3.32c-.027 0-2.77-.005-2.919-.001H66.811a21.577 21.577 0 0 0 5.415 5.254l.055.034 1.542.918a1.155 1.155 0 0 0 1.181-1.985z"/></g><g><path fill="#253680" d="M85.253 36.603c-.025-.072-.616-1.797-1.644-4.241-1.028-2.446-2.106-4.694-3.205-6.68-1.767-3.191-3.543-5.614-5.279-7.202-2.412-2.207-4.25-3.145-6.536-2.251-1.902.742-3.55 2.27-4.225 4.087.483.003 2.041-.002 2.532-.002.01 0 .02.003.029.003.578-.851 1.515-1.55 2.504-1.937 3.569-1.393 6.939 4.78 8.954 8.42 1.059 1.915 2.1 4.087 3.096 6.456a81.517 81.517 0 0 1 1.067 2.669 13.804 13.804 0 0 1-2.232-.164 1.155 1.155 0 0 0-.353 2.283c1.458.225 2.917.252 4.338.08a1.158 1.158 0 0 0 .954-1.52z"/></g><g><path fill="#ed1d24" d="M87.304 40.153a4.47 4.47 0 1 1-6.289-6.353 4.47 4.47 0 0 1 6.29 6.353zm17.057-14.815a5.69 5.69 0 0 0-2.535-1.258c-3.327-.7-11.91-1.683-24.296 2.804a5.694 5.694 0 0 0-3.395 3.361c-4.613 12.34-3.717 20.933-3.05 24.265.188.94.615 1.817 1.233 2.548 11.551 13.68 15.955 18.85 29.118 30.373a5.693 5.693 0 0 0 7.257.21 152.896 152.896 0 0 0 25.277-25.023 5.693 5.693 0 0 0-.136-7.258c-11.389-13.28-15.911-18.332-29.473-30.022z"/></g><g><g><path fill="#fff" d="M111.733 71.724a2.136 2.136 0 0 1-.712.486c-1.108.464-2.367-.093-2.812-1.243L97.478 43.29c-.446-1.15.09-2.46 1.198-2.923 1.107-.464 2.366.093 2.812 1.243l10.731 27.677a2.308 2.308 0 0 1-.486 2.436z"/></g><g><path fill="#fff" d="M89.183 54.396c1.06-1.09 3.098-.812 4.45.607 1.352 1.42 1.599 3.539.54 4.628-1.06 1.09-3.098.812-4.45-.607-1.353-1.419-1.6-3.538-.54-4.628zm8.03 8.426c2.773-2.85 2.545-7.776-.507-10.978-3.053-3.204-7.791-3.49-10.564-.64-2.773 2.852-2.545 7.777.507 10.98 3.053 3.203 7.791 3.489 10.564.638z"/></g><g><path fill="#fff" d="M115.67 53.63c1.059-1.09 3.096-.812 4.449.607 1.352 1.418 1.6 3.538.539 4.627-1.06 1.09-3.098.813-4.45-.606-1.352-1.42-1.599-3.539-.539-4.628zm8.03 8.426c2.772-2.851 2.544-7.777-.508-10.979-3.053-3.203-7.791-3.49-10.564-.639-2.773 2.852-2.545 7.777.507 10.98 3.053 3.202 7.791 3.488 10.564.638z"/></g></g><g><path fill="#005baa" d="M80.55 36.958a3.558 3.558 0 0 1 .966-2.445c1.277-1.345 3.344-1.335 4.608.023 1.262 1.358 1.252 3.556-.026 4.901a3.124 3.124 0 0 1-4.606-.023 3.557 3.557 0 0 1-.942-2.456zm7.187-4.121c-2.144-2.304-5.65-2.321-7.817-.04-1.05 1.106-1.632 2.58-1.64 4.15-.008 1.57.56 3.05 1.598 4.166 2.143 2.303 5.65 2.32 7.817.04 1.083-1.141 1.63-2.645 1.638-4.15.007-1.506-.525-3.015-1.596-4.166z"/></g><g><path fill="#253680" d="M79.47 24.069c.312.512.623 1.05.934 1.612 1.1 1.988 2.177 4.234 3.205 6.68.308.73.576 1.396.801 1.971a5.69 5.69 0 0 1-2.162.816 87.817 87.817 0 0 0-.768-1.89c-.997-2.371-2.038-4.543-3.096-6.458a44.97 44.97 0 0 0-.9-1.55 5.698 5.698 0 0 1 1.986-1.181z"/></g></g></g><g><g><path fill="#005baa" d="M0 17C0 7.611 7.611 0 17 0s17 7.611 17 17-7.611 17-17 17S0 26.39 0 17z"/></g><g><g><text dominant-baseline="text-before-edge" style="line-height:35px;font-kerning:normal" fill="#f5f5f5" font-family="'Ubuntu','Ubuntu-Bold'" font-size="20" font-style="none" font-weight="700" transform="translate(11 5)"><tspan>3</tspan></text></g></g></g></g></g></svg>