<svg xmlns="http://www.w3.org/2000/svg" width="147" height="132" viewBox="0 0 147 132"><g><g><g><g><g><path fill="#e8e8e8" d="M140.07 125.088l-68.163 6.107a6.771 6.771 0 0 1-7.35-6.141l-3.824-42.679a6.773 6.773 0 0 1 6.141-7.35l68.162-6.106a6.773 6.773 0 0 1 7.35 6.14l.669 7.451-3.583 8.637 5.06 7.862 1.678 18.729a6.772 6.772 0 0 1-6.14 7.35z"/></g></g><g><g><path fill="#929292" d="M61.4 89.826l81.655-7.316 1.477 16.5-81.653 7.315z"/></g></g><g><g><path fill="#253680" d="M104.855 96.546l-68.163 6.107a6.772 6.772 0 0 1-7.35-6.141l-3.824-42.679a6.773 6.773 0 0 1 6.142-7.35l68.162-6.107a6.773 6.773 0 0 1 7.35 6.141l3.824 42.679a6.773 6.773 0 0 1-6.14 7.35z"/></g></g><g><g><g><path fill="#f4fbff" d="M48.482 89.598l-9.884.886a1.742 1.742 0 1 1-.31-3.47l9.884-.886a1.742 1.742 0 0 1 .31 3.47z"/></g></g><g><g><path fill="#f4fbff" d="M66.03 88.026l-9.884.885a1.742 1.742 0 1 1-.311-3.47l9.884-.885a1.742 1.742 0 0 1 .311 3.47z"/></g></g><g><g><path fill="#f4fbff" d="M83.579 86.454l-9.885.885a1.742 1.742 0 1 1-.311-3.47l9.884-.885a1.743 1.743 0 0 1 .312 3.47z"/></g></g><g><g><path fill="#f4fbff" d="M101.126 84.881l-9.884.886a1.743 1.743 0 0 1-.31-3.47l9.884-.885a1.742 1.742 0 1 1 .31 3.47z"/></g></g></g><g><g><path fill="#253680" d="M137.857 110.682l-9.884.885a1.742 1.742 0 1 1-.311-3.47l9.885-.884a1.74 1.74 0 1 1 .31 3.47z"/></g></g><g><g><path fill="#f4fbff" d="M93.555 59.705a6.71 6.71 0 0 1-7.275-6.078 6.712 6.712 0 0 1 6.079-7.276 6.71 6.71 0 0 1 7.275 6.079 6.71 6.71 0 0 1-6.08 7.275z"/></g></g><g><path fill="#515151" d="M135.949 83.146l7.106-.636 1.477 16.5-7.105.637z"/></g><g><path fill="#e4f6ff" d="M101.334 81.442l.297 3.317a1.744 1.744 0 0 0-.297-3.317z"/></g><g><g><g><path fill="#ffe07d" d="M48.413 75.208l-10.87.974a2.701 2.701 0 0 1-2.935-2.444l-.678-7.557a2.7 2.7 0 0 1 2.456-2.927l10.869-.974a2.701 2.701 0 0 1 2.936 2.444l.677 7.557a2.702 2.702 0 0 1-2.455 2.927z"/></g></g><g><path fill="#ffc250" d="M37.538 68.444l-3.335.299.217 2.425 3.335-.299c.741-.066 1.294-.663 1.235-1.333-.06-.67-.71-1.159-1.452-1.093z"/></g><g><path fill="#ffc250" d="M50.403 67.291l-3.514.315c-.741.067-1.294.664-1.234 1.333.06.67.71 1.16 1.451 1.092l3.514-.314z"/></g><g><path fill="#ffc250" d="M40.736 62.863l1.7-.151 1.157 12.928-1.698.153z"/></g></g></g><g><g><path fill="#005baa" d="M0 17C0 7.611 7.611 0 17 0s17 7.611 17 17-7.611 17-17 17S0 26.39 0 17z"/></g><g><g><text dominant-baseline="text-before-edge" style="line-height:35px;font-kerning:normal" fill="#f5f5f5" font-family="'Ubuntu','Ubuntu-Bold'" font-size="20" font-style="none" font-weight="700" transform="translate(11 5)"><tspan>4</tspan></text></g></g></g></g></g></svg>