<svg xmlns="http://www.w3.org/2000/svg" width="162" height="141" viewBox="0 0 162 141"><g><g><g><g><g><path fill="#2690dd" d="M92.47 28.402c0 4.58-3.107 8.306-6.928 8.306-3.821 0-6.929-3.726-6.929-8.306 0-4.58 3.108-8.306 6.929-8.306 3.82 0 6.928 3.726 6.928 8.306zm2.66 0c0-6.046-4.301-10.964-9.588-10.964-5.287 0-9.589 4.918-9.589 10.964 0 6.047 4.302 10.965 9.589 10.965 5.287 0 9.589-4.918 9.589-10.965z"/></g><g><path fill="#2690dd" d="M99.198 49.09h-2.536a5.662 5.662 0 0 0-5.656-5.655H80.077a5.662 5.662 0 0 0-5.655 5.656h-2.536c0-4.516 3.674-8.191 8.191-8.191h10.93c4.516 0 8.191 3.675 8.191 8.19z"/></g></g><g><g><path fill="#fff" d="M35.529 92.834c-7.18 0-13-5.82-13-13v-.865c0-7.18 5.82-13 13-13h100.026c7.18 0 13 5.82 13 13v.865c0 7.18-5.82 13-13 13z"/><path fill="none" stroke="#dbdbdb" stroke-miterlimit="20" stroke-width="1.26" d="M35.529 92.834c-7.18 0-13-5.82-13-13v-.865c0-7.18 5.82-13 13-13h100.026c7.18 0 13 5.82 13 13v.865c0 7.18-5.82 13-13 13z"/></g><g><path fill="#005baa" d="M38.907 79.402a4.27 4.27 0 1 1 8.54 0 4.27 4.27 0 0 1-8.54 0z"/></g><g><path fill="#005baa" d="M56.414 79.402a4.27 4.27 0 1 1 8.54 0 4.27 4.27 0 0 1-8.54 0z"/></g><g><path fill="#005baa" d="M72.64 79.402a4.27 4.27 0 1 1 8.54 0 4.27 4.27 0 0 1-8.54 0z"/></g><g><path fill="#005baa" d="M88.866 79.78a4.27 4.27 0 1 1 8.54 0 4.27 4.27 0 0 1-8.54 0z"/></g></g><g><g><path fill="#fff" d="M35.529 127.848c-7.18 0-13-5.82-13-13v-.865c0-7.18 5.82-13 13-13h100.026c7.18 0 13 5.82 13 13v.865c0 7.18-5.82 13-13 13z"/><path fill="none" stroke="#dbdbdb" stroke-miterlimit="20" stroke-width="1.26" d="M35.529 127.848c-7.18 0-13-5.82-13-13v-.865c0-7.18 5.82-13 13-13h100.026c7.18 0 13 5.82 13 13v.865c0 7.18-5.82 13-13 13z"/></g><g><path fill="#005baa" d="M38.907 114.416a4.27 4.27 0 1 1 8.54 0 4.27 4.27 0 0 1-8.54 0z"/></g><g><path fill="#005baa" d="M56.414 114.416a4.27 4.27 0 1 1 8.54 0 4.27 4.27 0 0 1-8.54 0z"/></g><g><path fill="#005baa" d="M72.64 114.416a4.27 4.27 0 1 1 8.54 0 4.27 4.27 0 0 1-8.54 0z"/></g><g><path fill="#005baa" d="M89.72 114.794a4.27 4.27 0 1 1 8.54 0 4.27 4.27 0 0 1-8.54 0z"/></g></g><g><g><path fill="#4ccd8a" d="M148.15 102.767l-2.281-2.28a1.615 1.615 0 0 0-1.182-.497c-.455 0-.85.165-1.18.497l-13.41 13.41-5.45-5.452a1.613 1.613 0 0 0-1.182-.497c-.456 0-.85.166-1.18.497l-2.281 2.28a1.613 1.613 0 0 0-.497 1.181c0 .456.166.85.497 1.182l8.912 8.912c.332.331.725.497 1.181.497.456 0 .85-.166 1.181-.497l16.87-16.87c.332-.332.498-.726.498-1.182 0-.456-.165-.85-.497-1.181z"/></g></g><g><g><path fill="#4ccd8a" d="M148.15 68.607l-2.281-2.28a1.615 1.615 0 0 0-1.182-.497c-.455 0-.85.165-1.18.497l-13.41 13.41-5.45-5.452a1.613 1.613 0 0 0-1.182-.497c-.456 0-.85.166-1.18.497l-2.281 2.28a1.613 1.613 0 0 0-.497 1.181c0 .457.166.85.497 1.182l8.912 8.912c.332.331.725.497 1.181.497.456 0 .85-.166 1.181-.497l16.87-16.87c.332-.332.498-.726.498-1.182 0-.456-.165-.85-.497-1.181z"/></g></g></g><g><g><path fill="#005baa" d="M0 17C0 7.611 7.611 0 17 0s17 7.611 17 17-7.611 17-17 17S0 26.389 0 17z"/></g><g><g><text dominant-baseline="text-before-edge" style="line-height:35px;font-kerning:normal" fill="#f5f5f5" font-family="'Ubuntu','Ubuntu-Bold'" font-size="20" font-style="none" font-weight="700" transform="translate(11 5)"><tspan>1</tspan></text></g></g></g></g></g></svg>