<svg xmlns="http://www.w3.org/2000/svg" width="146" height="140" viewBox="0 0 146 140"><g><g><g><g><path fill="#e8e8e8" d="M38.964 133.79c0-2.942 20.514-5.327 45.82-5.327 25.305 0 45.819 2.385 45.819 5.328 0 2.942-20.514 5.328-45.82 5.328-25.305 0-45.819-2.386-45.819-5.328z"/></g><g><path fill="#333" d="M56.14 134.146a4.98 4.98 0 0 1-4.98-4.98V14.862a4.98 4.98 0 0 1 4.98-4.98h59.68a4.98 4.98 0 0 1 4.98 4.98v114.304a4.98 4.98 0 0 1-4.98 4.98z"/></g><g><path fill="#fff" d="M59.405 115.648a4.98 4.98 0 0 1-4.98-4.98V24.655a4.98 4.98 0 0 1 4.98-4.98h53.15a4.98 4.98 0 0 1 4.98 4.98v86.013a4.98 4.98 0 0 1-4.98 4.98z"/></g><g><g><g><g><g><path fill="#005baa" d="M93.436 91.628h12.289a2.812 2.812 0 0 1 2.901 2.714v12.664a2.812 2.812 0 0 1-2.901 2.714H93.436a2.813 2.813 0 0 1-2.901-2.714V94.342a2.813 2.813 0 0 1 2.901-2.714z"/></g></g></g></g><g><g/><g><path fill="#fff" d="M102.879 101.869h-1.258l.664-3.459v-.018h1.402zm-1.957 0h-.746l-.663-3.477h2.078zm-2.58 0l-1.02-3.477h1.509a.315.315 0 0 0 0 .08l.648 3.397zm6.046-4.033a.346.346 0 0 0-.269-.13h-6.998l-.287-.977a.345.345 0 0 0-.208-.224l-1.858-.708a.342.342 0 1 0-.262.633l.018.007 1.7.648 1.533 5.224a.344.344 0 0 0 .33.246h5.066c.159 0 .298-.11.334-.265l.968-4.163a.342.342 0 0 0-.066-.29z"/></g><g><path fill="#fff" d="M97.896 104.207a.915.915 0 1 1 1.83 0 .915.915 0 0 1-1.83 0z"/></g><g><path fill="#fff" d="M101.081 104.207a.915.915 0 1 1 1.83 0 .915.915 0 0 1-1.83 0z"/></g></g></g><g><path fill="#1a1a1a" d="M77.55 128.705a2 2 0 0 1-2-2v-1.44a2 2 0 0 1 2-2h16.674a2 2 0 0 1 2 2v1.44a2 2 0 0 1-2 2z"/></g><g><g><path fill="#ec1c24" d="M83.967 24.25c.017-.017.033-.024.048-.024.024 0 .042.023.042.05a.08.08 0 0 1-.024.051c-.632.786-1.092 1.705-1.092 2.98 0 1.274.46 2.175 1.092 2.96a.083.083 0 0 1 .024.051c0 .029-.018.05-.042.05-.015 0-.031-.006-.048-.023l-2.696-2.606a.553.553 0 0 1-.22-.441c0-.193.086-.326.22-.44l2.696-2.608"/></g><g><path fill="#005aa9" d="M86.037 24.03c-1.054 0-1.467 1.496-1.467 3.277 0 1.783.413 3.258 1.467 3.258.633 0 1.173-.37 1.175-.675a.259.259 0 0 0-.081-.187c-.3-.29-.417-.58-.419-.835-.001-.488.422-.852.812-.852.537 0 .853.422.853.968 0 .518-.22.95-.46 1.294a.081.081 0 0 0-.013.044c0 .026.015.05.039.05.015 0 .032-.01.05-.027l2.696-2.606a.552.552 0 0 0 .22-.441c0-.193-.086-.326-.22-.44l-2.695-2.608c-.02-.018-.036-.025-.051-.025-.024 0-.04.022-.04.05 0 .013.005.028.014.043.24.345.46.776.46 1.293 0 .546-.316.969-.853.969-.39 0-.813-.364-.812-.853.002-.255.118-.545.419-.834a.26.26 0 0 0 .081-.187c-.002-.304-.542-.676-1.175-.676"/></g></g><g><path fill="#caeffc" d="M62.553 97.602a1 1 0 0 1-1-1V95.18a1 1 0 0 1 1-1h21.109a1 1 0 0 1 1 1v1.423a1 1 0 0 1-1 1z"/></g><g><path fill="#e8e8e8" d="M63.553 107.017a2 2 0 0 1-2-2v-1.991a2 2 0 0 1 2-2h19.109a2 2 0 0 1 2 2v1.99a2 2 0 0 1-2 2z"/></g><g><g><path fill="#2690dd" d="M111.905 26.284c0 .955-.649 1.732-1.446 1.732-.796 0-1.444-.777-1.444-1.732s.648-1.732 1.444-1.732c.797 0 1.446.777 1.446 1.732zm.555 0c0-1.262-.897-2.287-2-2.287s-2 1.025-2 2.287c0 1.26.897 2.286 2 2.286s2-1.026 2-2.286z"/></g><g><path fill="#2690dd" d="M113.308 30.598h-.53c0-.65-.528-1.18-1.179-1.18h-2.279c-.65 0-1.18.53-1.18 1.18h-.528a1.71 1.71 0 0 1 1.708-1.708h2.28a1.71 1.71 0 0 1 1.708 1.708z"/></g></g><g><g><path fill="none" stroke="#2690dd" stroke-linecap="round" stroke-miterlimit="20" stroke-width=".88" d="M58.985 24.944h5.991"/></g><g><path fill="none" stroke="#2690dd" stroke-linecap="round" stroke-miterlimit="20" stroke-width=".88" d="M58.985 27.298h5.991"/></g><g><path fill="none" stroke="#2690dd" stroke-linecap="round" stroke-miterlimit="20" stroke-width=".88" d="M58.985 29.651h5.991"/></g></g><g><g><path fill="#fff27d" d="M97.538 57.131l1.085-.684c.635.78 1.342 1.324 1.673 1.876 1.868 3.11 1.103 8.613-.434 11.246-3.955 6.772-9.571 9.892-14.724 10.935-1.955.397-5.224.754-8.945-1.208-.183-.097-.422-.21-.677-.332l1.908-1.469-.258-2.047c1.31-.521 2.983-.978 4.349-1.534 2.868-.52 5.844-1.853 8.84-4.433 2.502-2.153 5.938-6.81 5.68-10.532-.044-.659-.44-1.487-.657-2.497l1.851.874z"/></g><g><path fill="#ffe33b" d="M99.862 69.569c1.537-2.633 2.302-8.135.434-11.246-.33-.552-1.038-1.095-1.673-1.876l-1.085.684-.309.195-.004-.002c.495 2.852-.034 6.187-1.025 8.104-3.598 6.969-9.045 10.376-14.136 11.685-1.152.296-2.77.603-4.699.427l-1.85 1.425c.256.122.495.234.678.33 3.721 1.963 6.99 1.606 8.945 1.21 5.153-1.044 10.769-4.164 14.724-10.936z"/></g><g><path fill="#fff27d" d="M66.637 65.638l.095-1.75c1.76.191 4.945.844 6.215 1.126 4.92 1.089 11.393-1.613 14.885-5.14.895-.905 1.772-1.703 4.634-4.071.103-.086.196-.183.278-.29l.94 1.096 1.693-.158h.001c.217 1.01.613 1.84.657 2.498.258 3.722-3.178 8.38-5.68 10.532-2.997 2.58-5.972 3.913-8.84 4.432-3.007.545-5.896.2-8.57-.537-1.983-.547-6.119-2.722-8.914-6.412z"/></g><g><path fill="#f9d438" d="M96.035 58.95c-.044-.66-.44-1.488-.657-2.498v-.001l-1.133.106c-.828 3.288-3.818 6.753-6.038 8.458-3.135 2.409-6.18 3.573-9.073 3.932-3.032.376-5.897-.13-8.526-1.015-.976-.328-2.468-1.094-4.04-2.26l-2.537 1.292c2.795 3.69 6.93 5.866 8.915 6.412 2.672.737 5.562 1.082 8.568.538 2.869-.52 5.844-1.852 8.84-4.432 2.503-2.154 5.939-6.81 5.681-10.533z"/></g><g><path fill="#ddbc31" d="M77.166 75.448l.258 2.047-1.908 1.469c-.706-.338-1.535-.756-1.615-1.119-.136-.61.441-1.74.441-1.74.51-.436 2.203-.41 2.824-.657z"/></g><g><path fill="#ccae2e" d="M95.378 56.452v-.001l-1.694.158-.94-1.096c.942-1.216.782-3.756.782-3.756l.584-.952s-.067-1.655 1.04-2.289a.368.368 0 0 1 .342.017c.559.253 1.317 1.347 1.317 1.347.016.078.03.153.04.226.174 1.231-.473 1.7-.82 2.303-.913 1.585-.891 2.925-.651 4.043z"/></g><g><path fill="#ddbc31" d="M98.623 56.447l-1.085.684-.309.195-1.851-.874c-.24-1.118-.262-2.458.651-4.043.347-.603.994-1.072.82-2.303l.103.022c.872 1.086.48 1.82.446 2.532-.087 1.773.524 2.925 1.225 3.787z"/></g><g><path fill="#ddbc31" d="M64.994 63.352c.643.202 1.337.493 1.738.536l-.095 1.75-2.606 1.326c-.48-.635-1.557-1.892-1.427-2.396.162-.624 1.225-1.39 1.225-1.39.279-.068.71.03 1.165.174z"/></g></g><g><g><g><path fill="#999" d="M125.113 60.619c-.486 0-.951.26-1.183.718-.371.648-.123 1.477.55 1.841l4.607 2.466a1.308 1.308 0 0 0 1.815-.543 1.308 1.308 0 0 0-.543-1.815l-4.588-2.5a1.38 1.38 0 0 0-.658-.167z"/></g><g><path fill="#253680" d="M143.29 67.183l-11.64-6.288c-.647-.372-1.477-.124-1.84.55l-1.266 2.383-1.3 2.366c-.363.674-.115 1.503.551 1.841l11.64 6.287a4.035 4.035 0 0 0 5.497-1.642 4.035 4.035 0 0 0-1.642-5.497z"/></g><g><path fill="#999" d="M110.821 36.672c2.822 0 5.69.685 8.354 2.132 8.556 4.619 11.758 15.244 7.113 23.806a17.545 17.545 0 0 1-15.452 9.244c-2.822 0-5.69-.686-8.355-2.132-8.555-4.62-11.757-15.244-7.112-23.807a17.545 17.545 0 0 1 15.452-9.243zM97.903 47.284c-1.875 3.455-2.292 7.417-1.177 11.163 1.12 3.761 3.65 6.866 7.123 8.742a14.704 14.704 0 0 0 6.987 1.786c5.393 0 10.342-2.963 12.918-7.733 1.875-3.455 2.292-7.418 1.176-11.163-1.119-3.762-3.648-6.866-7.122-8.742a14.704 14.704 0 0 0-6.987-1.786z"/></g><g opacity=".45"><path fill="#cae8f9" d="M106.568 40c-3.943 1.177-7.015 3.846-8.842 7.189-1.792 3.36-2.339 7.393-1.16 11.335 2.347 7.858 10.666 12.35 18.524 10.001 3.94-1.176 7.013-3.846 8.84-7.188 1.793-3.36 2.339-7.394 1.161-11.335-2.346-7.858-10.666-12.35-18.523-10.003z"/></g><g><path fill="#fff" d="M104.347 63.61a.866.866 0 0 1-.424-.111 10.837 10.837 0 0 1-5.136-6.381c-1.355-4.535.458-9.528 4.41-12.144a.87.87 0 1 1 .96 1.453c-3.316 2.195-4.838 6.386-3.701 10.192a9.103 9.103 0 0 0 4.317 5.36.871.871 0 0 1-.426 1.631z"/></g></g><g><g><path fill="#009ce3" d="M108.929 57.815c0 .894.447 1.342 1.341 1.342h.382c.928 0 1.374-.43 1.374-1.342v-.265c0-.91-.43-1.342-1.374-1.342h-.382c-.91 0-1.341.431-1.341 1.342zm2.932-6.378c0 1.027-2.684.646-2.717 3.032 0 .745.547 1.11 1.342 1.11.712 0 1.143-.166 1.259-.547.249-1.392 3.114-1.077 3.114-3.81 0-1.94-1.524-3.148-4.108-3.148-2.6 0-4.058 1.309-4.058 2.733 0 1.657 2.103 1.508 2.103 1.475.116-.845.746-1.673 1.922-1.673.713 0 1.143.315 1.143.828z"/></g></g></g></g><g><g><path fill="#005baa" d="M0 17C0 7.611 7.61 0 17 0s17 7.611 17 17-7.611 17-17 17S0 26.39 0 17z"/></g><g><g><text dominant-baseline="text-before-edge" style="line-height:35px;font-kerning:normal" fill="#f5f5f5" font-family="'Ubuntu','Ubuntu-Bold'" font-size="20" font-style="none" font-weight="700" transform="translate(10 5)"><tspan>2</tspan></text></g></g></g></g></g></svg>