<svg xmlns="http://www.w3.org/2000/svg" width="149" height="108" viewBox="0 0 149 108"><g><g><g><g><g><g><path fill="#4ccd8a" d="M57.457 73.738l-2.288-2.289a1.62 1.62 0 0 0-1.187-.499 1.62 1.62 0 0 0-1.185.5L39.336 84.91l-5.471-5.472a1.62 1.62 0 0 0-1.186-.5 1.62 1.62 0 0 0-1.185.5l-2.29 2.288a1.62 1.62 0 0 0-.499 1.187c0 .457.167.852.5 1.185l8.945 8.946c.333.333.729.5 1.187.5a1.62 1.62 0 0 0 1.185-.5L57.457 76.11c.333-.333.5-.729.5-1.187a1.62 1.62 0 0 0-.5-1.185z"/></g></g><g><path fill="#4ccd8a" d="M66.598 82.484c0 12.829-10.438 23.267-23.266 23.267-12.83 0-23.269-10.438-23.269-23.267 0-12.83 10.44-23.267 23.269-23.267 12.828 0 23.266 10.438 23.266 23.267zm1.691 0c0-13.762-11.196-24.96-24.957-24.96-13.764 0-24.96 11.198-24.96 24.96s11.196 24.958 24.96 24.958c13.761 0 24.957-11.196 24.957-24.958z"/></g></g><g><g><g><path fill="#f7931e" d="M137.942 74.16l-2.29-2.288a1.621 1.621 0 0 0-1.185-.5c-.457 0-.854.168-1.187.5l-13.46 13.46-5.47-5.471a1.623 1.623 0 0 0-1.187-.5 1.62 1.62 0 0 0-1.186.5l-2.288 2.288c-.333.333-.5.729-.5 1.187 0 .457.167.853.5 1.185l8.946 8.946c.333.333.728.5 1.185.5a1.62 1.62 0 0 0 1.186-.5l16.935-16.934c.332-.333.5-.729.5-1.187a1.62 1.62 0 0 0-.5-1.185z"/></g></g><g><path fill="#f7931e" d="M147.082 82.907c0 12.829-10.438 23.267-23.268 23.267-12.828 0-23.266-10.438-23.266-23.267 0-12.83 10.438-23.268 23.266-23.268 12.83 0 23.268 10.439 23.268 23.268zm1.692 0c0-13.764-11.197-24.96-24.96-24.96-13.762 0-24.957 11.196-24.957 24.96 0 13.762 11.195 24.958 24.957 24.958 13.763 0 24.96-11.196 24.96-24.958z"/></g></g><g><path fill="#e8e8e8" d="M92.841 85.363h-18.73a3.305 3.305 0 1 1 0-6.61h18.73a3.305 3.305 0 1 1 0 6.61z"/></g></g><g><g><path fill="#005baa" d="M0 17C0 7.611 7.611 0 17 0s17 7.611 17 17-7.611 17-17 17S0 26.39 0 17z"/></g><g><g><text dominant-baseline="text-before-edge" style="line-height:35px;font-kerning:normal" fill="#f5f5f5" font-family="'Ubuntu','Ubuntu-Bold'" font-size="20" font-style="none" font-weight="700" transform="translate(11 5)"><tspan>5</tspan></text></g></g></g></g></g></svg>