<svg xmlns="http://www.w3.org/2000/svg" data-name="Layer 1" viewBox="0 0 1100 1100"><defs><linearGradient id="b" x1="443.833" x2="443.833" y1="496.317" y2="240.377" gradientUnits="userSpaceOnUse"><stop offset="0" stop-color="#ffffff" stop-opacity="0" class="stopColorfff svgShape"/><stop offset="1" stop-color="#ffffff" class="stopColorfff svgShape"/></linearGradient><clipPath id="a"><path fill="none" d="M504.78433,165.57255C622.13281,188.69,682.03961,321.59012,871.01122,439.85081c188.97161,118.2625,147.36648,580.04194-151.08386,504.72893-284.72-71.84973-297.90025-66.1751-484.371-59.54122C2.15527,893.34175,133.43292,92.41672,504.78433,165.57255Z"/></clipPath></defs><path fill="#ffce4d" d="M504.78433 165.57255C622.13281 188.69 682.03961 321.59012 871.01122 439.85081c188.97161 118.2625 147.36648 580.04194-151.08386 504.72893-284.72-71.84973-297.90025-66.1751-484.371-59.54122C2.15527 893.34175 133.43292 92.41672 504.78433 165.57255zM823.03924 360.39669c-55.07348-43.82442-100.94095-120.30936-74.86015-194.00155 26.08081-73.69136 79.92968 63.47858 123.26082 109.1713C934.1388 341.6834 938.29928 452.11558 823.03924 360.39669z" class="colorffce4d svgShape"/><g clip-path="url(#a)" fill="#000000" class="color000 svgShape"><polygon fill="#ffde6f" points="200.647 384.687 200.647 356.4 247.569 356.4 247.569 221.193 260.503 221.193 260.503 356.4 311.047 356.4 311.047 384.687 338.118 384.687 338.118 951.582 142.883 951.582 142.883 384.687 200.647 384.687" class="colorffde6f svgShape"/><rect width="27.071" height="509.947" x="142.885" y="384.687" fill="#e0c362" transform="rotate(180 156.42 639.66)" class="colore0c362 svgShape"/><rect width="195.233" height="431.857" x="240.501" y="519.725" fill="#ffde6f" transform="rotate(180 338.118 735.654)" class="colorffde6f svgShape"/><rect width="27.071" height="431.857" x="240.501" y="519.725" fill="#e0c362" transform="rotate(180 254.037 735.654)" class="colore0c362 svgShape"/><rect width="195.233" height="431.857" x="758.608" y="519.725" fill="#ffde6f" transform="rotate(180 856.225 735.654)" class="colorffde6f svgShape"/><rect width="27.071" height="431.857" x="758.608" y="519.725" fill="#e0c362" transform="rotate(180 772.143 735.654)" class="colore0c362 svgShape"/><rect width="261.947" height="637.266" x="430.298" y="314.317" fill="#ffde6f" transform="rotate(180 561.272 632.95)" class="colorffde6f svgShape"/><rect width="27.071" height="637.266" x="430.298" y="314.317" fill="#e0c362" transform="rotate(180 443.833 632.95)" class="colore0c362 svgShape"/><rect width="40.91" height="16.98" x="623.744" y="344.838" fill="#ffffff" transform="rotate(180 644.199 353.328)" class="colorfff svgShape"/><rect width="40.91" height="16.98" x="554.866" y="344.838" fill="#ffffff" transform="rotate(180 575.32 353.328)" class="colorfff svgShape"/><rect width="40.91" height="16.98" x="623.744" y="406.66" fill="#ffffff" transform="rotate(180 644.199 415.15)" class="colorfff svgShape"/><rect width="40.91" height="16.98" x="554.866" y="406.66" fill="#ffffff" transform="rotate(180 575.32 415.15)" class="colorfff svgShape"/><rect width="40.909" height="16.98" x="485.988" y="406.66" fill="#ffffff" transform="rotate(180 506.442 415.15)" class="colorfff svgShape"/><rect width="40.91" height="16.979" x="623.744" y="468.483" fill="#ffffff" transform="rotate(180 644.199 476.972)" class="colorfff svgShape"/><rect width="40.909" height="16.979" x="485.988" y="468.483" fill="#ffffff" transform="rotate(180 506.442 476.972)" class="colorfff svgShape"/><rect width="40.91" height="16.979" x="554.866" y="499.394" fill="#ffffff" transform="rotate(180 575.32 507.883)" class="colorfff svgShape"/><rect width="40.91" height="16.98" x="623.744" y="530.305" fill="#ffffff" transform="rotate(180 644.199 538.795)" class="colorfff svgShape"/><rect width="40.91" height="16.98" x="554.866" y="561.216" fill="#ffffff" transform="rotate(180 575.32 569.706)" class="colorfff svgShape"/><rect width="40.91" height="16.979" x="623.744" y="592.128" fill="#ffffff" transform="rotate(180 644.199 600.618)" class="colorfff svgShape"/><rect width="40.909" height="16.979" x="485.988" y="592.128" fill="#ffffff" transform="rotate(180 506.442 600.618)" class="colorfff svgShape"/><rect width="40.91" height="16.98" x="623.744" y="649.256" fill="#ffffff" transform="rotate(180 644.199 657.746)" class="colorfff svgShape"/><rect width="40.91" height="16.98" x="554.866" y="649.256" fill="#ffffff" transform="rotate(180 575.32 657.746)" class="colorfff svgShape"/><rect width="40.91" height="16.98" x="623.744" y="711.078" fill="#ffffff" transform="rotate(180 644.199 719.568)" class="colorfff svgShape"/><rect width="40.91" height="16.98" x="554.866" y="711.078" fill="#ffffff" transform="rotate(180 575.32 719.568)" class="colorfff svgShape"/><rect width="40.909" height="16.98" x="485.988" y="711.078" fill="#ffffff" transform="rotate(180 506.442 719.568)" class="colorfff svgShape"/><rect width="40.91" height="16.98" x="623.744" y="772.9" fill="#ffffff" transform="rotate(180 644.199 781.39)" class="colorfff svgShape"/><rect width="40.909" height="16.98" x="485.988" y="772.9" fill="#ffffff" transform="rotate(180 506.442 781.39)" class="colorfff svgShape"/><rect width="40.91" height="16.979" x="554.866" y="803.813" fill="#ffffff" transform="rotate(180 575.32 812.302)" class="colorfff svgShape"/><rect width="40.909" height="16.979" x="485.988" y="803.813" fill="#ffffff" transform="rotate(180 506.442 812.302)" class="colorfff svgShape"/><rect width="40.91" height="16.979" x="623.744" y="834.724" fill="#ffffff" transform="rotate(180 644.199 843.213)" class="colorfff svgShape"/><rect width="40.91" height="16.979" x="554.866" y="865.635" fill="#ffffff" transform="rotate(180 575.32 874.124)" class="colorfff svgShape"/><rect width="40.91" height="16.979" x="623.744" y="896.546" fill="#ffffff" transform="rotate(180 644.199 905.035)" class="colorfff svgShape"/><rect width="40.909" height="16.979" x="485.988" y="896.546" fill="#ffffff" transform="rotate(180 506.442 905.035)" class="colorfff svgShape"/><rect width="256.74" height="589.764" x="893.111" y="361.818" fill="#ffde6f" transform="rotate(180 1021.481 656.7)" class="colorffde6f svgShape"/><rect width="26.532" height="589.764" x="893.111" y="361.818" fill="#e0c362" transform="rotate(180 906.377 656.7)" class="colore0c362 svgShape"/><rect width="40.097" height="15.713" x="1082.71" y="390.064" fill="#ffffff" transform="rotate(180 1102.76 397.92)" class="colorfff svgShape"/><rect width="40.097" height="15.713" x="1015.201" y="390.064" fill="#ffffff" transform="rotate(180 1035.25 397.92)" class="colorfff svgShape"/><rect width="40.097" height="15.715" x="1082.71" y="447.277" fill="#ffffff" transform="rotate(180 1102.76 455.135)" class="colorfff svgShape"/><rect width="40.097" height="15.715" x="1015.201" y="447.277" fill="#ffffff" transform="rotate(180 1035.25 455.135)" class="colorfff svgShape"/><rect width="40.096" height="15.715" x="947.693" y="447.277" fill="#ffffff" transform="rotate(180 967.74 455.135)" class="colorfff svgShape"/><rect width="40.097" height="15.713" x="1082.71" y="504.493" fill="#ffffff" transform="rotate(180 1102.76 512.35)" class="colorfff svgShape"/><rect width="40.096" height="15.713" x="947.693" y="504.493" fill="#ffffff" transform="rotate(180 967.74 512.35)" class="colorfff svgShape"/><rect width="40.097" height="15.713" x="1015.201" y="533.098" fill="#ffffff" transform="rotate(180 1035.25 540.955)" class="colorfff svgShape"/><rect width="40.097" height="15.713" x="1082.71" y="561.706" fill="#ffffff" transform="rotate(180 1102.76 569.563)" class="colorfff svgShape"/><rect width="40.097" height="15.713" x="1015.201" y="590.313" fill="#ffffff" transform="rotate(180 1035.25 598.17)" class="colorfff svgShape"/><rect width="40.097" height="15.713" x="1082.71" y="618.921" fill="#ffffff" transform="rotate(180 1102.76 626.778)" class="colorfff svgShape"/><rect width="40.096" height="15.713" x="947.693" y="618.921" fill="#ffffff" transform="rotate(180 967.74 626.778)" class="colorfff svgShape"/><rect width="40.097" height="15.712" x="1082.71" y="671.793" fill="#ffffff" transform="rotate(180 1102.76 679.649)" class="colorfff svgShape"/><rect width="40.097" height="15.712" x="1015.201" y="671.793" fill="#ffffff" transform="rotate(180 1035.25 679.649)" class="colorfff svgShape"/><rect width="40.097" height="15.713" x="1082.71" y="729.005" fill="#ffffff" transform="rotate(180 1102.76 736.861)" class="colorfff svgShape"/><rect width="40.097" height="15.713" x="1015.201" y="729.005" fill="#ffffff" transform="rotate(180 1035.25 736.861)" class="colorfff svgShape"/><rect width="40.096" height="15.713" x="947.693" y="729.005" fill="#ffffff" transform="rotate(180 967.74 736.861)" class="colorfff svgShape"/><rect width="40.097" height="15.714" x="1082.71" y="786.22" fill="#ffffff" transform="rotate(180 1102.76 794.077)" class="colorfff svgShape"/><rect width="40.096" height="15.714" x="947.693" y="786.22" fill="#ffffff" transform="rotate(180 967.74 794.077)" class="colorfff svgShape"/><rect width="40.097" height="15.714" x="1015.201" y="814.827" fill="#ffffff" transform="rotate(180 1035.25 822.684)" class="colorfff svgShape"/><rect width="40.096" height="15.714" x="947.693" y="814.827" fill="#ffffff" transform="rotate(180 967.74 822.684)" class="colorfff svgShape"/><rect width="40.097" height="15.715" x="1082.71" y="843.433" fill="#ffffff" transform="rotate(180 1102.76 851.291)" class="colorfff svgShape"/><rect width="40.097" height="15.713" x="1015.201" y="872.041" fill="#ffffff" transform="rotate(180 1035.25 879.898)" class="colorfff svgShape"/><rect width="40.097" height="15.715" x="1082.71" y="900.647" fill="#ffffff" transform="rotate(180 1102.76 908.504)" class="colorfff svgShape"/><rect width="40.096" height="15.715" x="947.693" y="900.647" fill="#ffffff" transform="rotate(180 967.74 908.504)" class="colorfff svgShape"/><rect width="165.351" height="402.261" x="12.43" y="549.321" fill="#ffde6f" transform="rotate(180 95.106 750.452)" class="colorffde6f svgShape"/><rect width="17.09" height="402.261" x="12.43" y="549.321" fill="#e0c362" transform="rotate(180 20.975 750.452)" class="colore0c362 svgShape"/><rect width="25.824" height="10.717" x="134.541" y="568.587" fill="#ffffff" transform="rotate(180 147.453 573.946)" class="colorfff svgShape"/><rect width="25.824" height="10.717" x="91.063" y="568.587" fill="#ffffff" transform="rotate(180 103.975 573.946)" class="colorfff svgShape"/><rect width="25.824" height="10.718" x="134.541" y="607.611" fill="#ffffff" transform="rotate(180 147.453 612.97)" class="colorfff svgShape"/><rect width="25.824" height="10.718" x="91.063" y="607.611" fill="#ffffff" transform="rotate(180 103.975 612.97)" class="colorfff svgShape"/><rect width="25.824" height="10.718" x="47.584" y="607.611" fill="#ffffff" transform="rotate(180 60.496 612.97)" class="colorfff svgShape"/><rect width="25.824" height="10.717" x="134.541" y="646.636" fill="#ffffff" transform="rotate(180 147.453 651.994)" class="colorfff svgShape"/><rect width="25.824" height="10.717" x="47.584" y="646.636" fill="#ffffff" transform="rotate(180 60.496 651.994)" class="colorfff svgShape"/><rect width="25.824" height="10.718" x="91.063" y="666.147" fill="#ffffff" transform="rotate(180 103.975 671.507)" class="colorfff svgShape"/><rect width="25.824" height="10.718" x="134.541" y="685.659" fill="#ffffff" transform="rotate(180 147.453 691.018)" class="colorfff svgShape"/><rect width="25.824" height="10.718" x="91.063" y="705.171" fill="#ffffff" transform="rotate(180 103.975 710.53)" class="colorfff svgShape"/><rect width="25.824" height="10.717" x="134.541" y="724.684" fill="#ffffff" transform="rotate(180 147.453 730.042)" class="colorfff svgShape"/><rect width="25.824" height="10.717" x="47.584" y="724.684" fill="#ffffff" transform="rotate(180 60.496 730.042)" class="colorfff svgShape"/><rect width="25.824" height="10.717" x="134.541" y="760.746" fill="#ffffff" transform="rotate(180 147.453 766.104)" class="colorfff svgShape"/><rect width="25.824" height="10.717" x="91.063" y="760.746" fill="#ffffff" transform="rotate(180 103.975 766.104)" class="colorfff svgShape"/><rect width="25.824" height="10.718" x="134.541" y="799.769" fill="#ffffff" transform="rotate(180 147.453 805.128)" class="colorfff svgShape"/><rect width="25.824" height="10.718" x="91.063" y="799.769" fill="#ffffff" transform="rotate(180 103.975 805.128)" class="colorfff svgShape"/><rect width="25.824" height="10.718" x="47.584" y="799.769" fill="#ffffff" transform="rotate(180 60.496 805.128)" class="colorfff svgShape"/><rect width="25.824" height="10.717" x="134.541" y="838.794" fill="#ffffff" transform="rotate(180 147.453 844.152)" class="colorfff svgShape"/><rect width="25.824" height="10.717" x="47.584" y="838.794" fill="#ffffff" transform="rotate(180 60.496 844.152)" class="colorfff svgShape"/><rect width="25.824" height="10.718" x="91.063" y="858.306" fill="#ffffff" transform="rotate(180 103.975 863.665)" class="colorfff svgShape"/><rect width="25.824" height="10.718" x="47.584" y="858.306" fill="#ffffff" transform="rotate(180 60.496 863.665)" class="colorfff svgShape"/><rect width="25.824" height="10.718" x="134.541" y="877.817" fill="#ffffff" transform="rotate(180 147.453 883.177)" class="colorfff svgShape"/><rect width="25.824" height="10.718" x="91.063" y="897.329" fill="#ffffff" transform="rotate(180 103.975 902.688)" class="colorfff svgShape"/><rect width="25.824" height="10.718" x="134.541" y="916.842" fill="#ffffff" transform="rotate(180 147.453 922.202)" class="colorfff svgShape"/><rect width="25.824" height="10.718" x="47.584" y="916.842" fill="#ffffff" transform="rotate(180 60.496 922.202)" class="colorfff svgShape"/><path fill="#e0c362" d="M445.9582,293.129a59.684,59.684,0,0,1-59.61577-59.61576h2.805a56.81067,56.81067,0,1,0,113.62133,0h2.805A59.685,59.685,0,0,1,445.9582,293.129Z" class="colore0c362 svgShape"/><polygon fill="#e0c362" points="445.154 186.877 369.961 249.173 535.749 249.173 445.154 186.877" class="colore0c362 svgShape"/><polygon fill="url(#b)" points="407.786 240.377 328.375 496.317 559.292 496.317 484.247 240.377 407.786 240.377" opacity=".22"/><rect width="7.3" height="82.519" x="441.704" y="123.539" fill="#ffde6f" class="colorffde6f svgShape"/><path fill="#f4bf62" d="M438.33559,195.12079h14.03609a5.2139,5.2139,0,0,1,5.2139,5.2139v21.28665a0,0,0,0,1,0,0H433.12079a0,0,0,0,1,0,0V200.33559A5.2148,5.2148,0,0,1,438.33559,195.12079Z" class="colorf4bf62 svgShape"/><path fill="#ffffff" d="M459.27431,251.2731a14.24629,14.24629,0,1,0-14.24637,14.24637A14.24689,14.24689,0,0,0,459.27431,251.2731Z" class="colorfff svgShape"/><path fill="#ffffff" d="M445.22207,260.18872c-3.37267-.60907-8.00872-3.2612-8.879-6.82569-.31058-1.27132-2.27446-.73265-1.96222.542,1.03859,4.25026,6.22291,7.50981,10.29941,8.24659C445.96134,262.383,446.51128,260.42161,445.22207,260.18872Z" class="colorfff svgShape"/><polygon fill="#ffde6f" points="445.154 186.877 362.259 249.173 528.049 249.173 445.154 186.877" class="colorffde6f svgShape"/><rect width="15.401" height="15.401" x="437.454" y="179.175" fill="#e0c362" rx="2.588" class="colore0c362 svgShape"/><path fill="#ffeba6" d="M697.99576 729.799s-9.62474 6.33621-8.68653 14.70736c.93986 8.37281 4.16362 28.73707 4.31254 35.29807h4.374s-3.05083-20.36427-1.17276-21.72139 6.57408 0 6.57408 0 6.80847 21.04357 10.79916 21.72139c3.99069.6793 34.748-.22644 35.68617-3.84675.93987-3.62015-27.76789-10.40775-30.31732-11.76487C717.01252 762.834 706.4494 731.83557 697.99576 729.799zM884.01046 825.77707s-9.62656 6.33455-8.6867 14.7057c.93821 8.37281 4.16048 28.73708 4.31105 35.29807h4.37565s-3.05249-20.36427-1.17441-21.72139 6.57242 0 6.57242 0 6.81012 21.04358 10.80081 21.72139c3.99053.67947 34.748-.22643 35.68617-3.84509.93821-3.62181-27.76806-10.4094-30.319-11.76652S892.46244 827.812 884.01046 825.77707zM703.6525 832.13266c-1.40565-1.82622-4.94828-1.1986-6.9476-1.24067l-11.65968-.25244a1.78777 1.78777 0 00-1.113 3.20935 1.82677 1.82677 0 00.18436.81381q2.27122 4.73129 4.54229 9.4581c1.17756 2.44093 2.25657 4.76707 4.56167 6.4139 3.54263 2.5332 7.86328 3.21747 9.68636-1.39124 1.14526-2.89231 1.35547-6.59495 1.46877-9.66516C704.45174 837.419 705.00167 833.88136 703.6525 832.13266zM740.56659 864.26179c-20.22827-.10038-40.09743.2329-60.33217-1.0515a2.00282 2.00282 0 00-2.57377 1.09358c-1.17276 3.004-3.32729 7.85517-.03711 10.23944 3.06375 2.221 12.27439 1.53834 15.84931 1.10965 4.63621-.55474 7.77765-2.84377 12.556-2.81611 4.56167.02584 8.3372 1.42338 12.78076 2.10451 8.17072 1.25359 17.006-.45784 24.70911-3.13664C752.27 868.76035 748.362 864.30055 740.56659 864.26179z" class="colorffeba6 svgShape"/><path fill="#ffeba6" d="M748.05933 863.3915c-3.34518-6.01586-12.221-4.03426-18.02819-4.88517-6.63238-.97068-13.28067-2.91666-17.2326-8.32262-3.968-5.43047-6.6791-14.83524-4.62147-21.36227a1.58594 1.58594 0 00-.9609-2.01075c-.0323-.01773-.06626-.0275-.09707-.04357a2.21375 2.21375 0 00-.2912-.10684 1.7392 1.7392 0 00-2.166.736 38.40352 38.40352 0 00-4.99185 12.41369 39.75307 39.75307 0 00-.69719 6.09189c-.07454 1.7762.26851 1.93637-1.506 3.16247-2.07866 1.43647-2.63192.54514-4.269-1.2844-5.43031-6.07251-3.2029-15.93992-10.15381-20.77507a1.54718 1.54718 0 00-1.56087-.19082 19.915 19.915 0 00-5.8623-4.93371c-2.08182-1.19379-3.97281 1.93456-1.89431 3.12521 17.027 9.76554 1.024 25.14575 1.70663 38.352.34289 6.65492 7.95224 5.0114 13.36316 5.267 12.81472.60659 25.59233 3.55058 38.3812 3.66057 7.17736.06162 16.37507-1.11776 20.88174-7.06736A1.735 1.735 0 00748.05933 863.3915zM898.57537 644.60878c-1.40565-1.82308-4.94828-1.19694-6.94761-1.24067l-11.65984-.25079a1.788 1.788 0 00-1.1128 3.20935 1.85228 1.85228 0 00.18271.8153q2.27346 4.72683 4.54394 9.45662c1.17757 2.44093 2.25492 4.76707 4.56167 6.4139 3.54263 2.53319 7.86312 3.21747 9.6862-1.38959 1.14526-2.894 1.35563-6.5966 1.46893-9.66532C899.3746 649.8968 899.92288 646.35748 898.57537 644.60878zM935.48946 676.73957c-20.22828-.10038-40.09744.2329-60.33234-1.05151a2.00257 2.00257 0 00-2.57361 1.09358c-1.17441 3.004-3.32894 7.85517-.03876 10.23945 3.06541 2.221 12.276 1.53685 15.84931 1.10965 4.63787-.5564 7.77914-2.84378 12.55764-2.81628 4.56167.0275 8.33885 1.4252 12.78076 2.10467 8.17055 1.2536 17.006-.45784 24.70911-3.13663C947.19287 681.23979 943.28466 676.77833 935.48946 676.73957z" class="colorffeba6 svgShape"/><path fill="#ffeba6" d="M942.9822 675.86928c-3.34518-6.01586-12.221-4.03443-18.02836-4.88352-6.63222-.97233-13.28216-2.91981-17.23244-8.32427-3.96966-5.43047-6.67744-14.83524-4.62312-21.36228a1.58268 1.58268 0 00-.95925-2.01075c-.0323-.01772-.06791-.02584-.09706-.04373a2.14409 2.14409 0 00-.28955-.105 1.73859 1.73859 0 00-2.16762.73265 38.46422 38.46422 0 00-4.9935 12.41534 39.96148 39.96148 0 00-.69719 6.09189c-.07289 1.7762.27 1.93787-1.50438 3.16413-2.07867 1.43481-2.63192.54348-4.27064-1.28606-5.4303-6.07416-3.20123-15.94008-10.15215-20.77506a1.53907 1.53907 0 00-1.561-.18933 19.93645 19.93645 0 00-5.86214-4.93537c-2.082-1.19379-3.973 1.93473-1.896 3.12537 17.0287 9.76554 1.02567 25.14575 1.70829 38.35205.34288 6.65491 7.95223 5.01139 13.36316 5.267 12.81471.60825 25.59067 3.55224 38.37954 3.66057 7.17735.06145 16.37672-1.11777 20.8834-7.06737A1.73542 1.73542 0 00942.9822 675.86928zM757.3397 680.35326c.78284 1.65975-10.33005 7.84556-34.1205 7.84556-23.79029 0-41.16021-.75385-41.78949-1.96222-.626-1.20522 1.56434-9.35143 1.56434-9.35143z" class="colorffeba6 svgShape"/><path fill="#ffeba6" d="M690.82007,656.82188c1.39919-.22329,6.73094,6.03523,12.83409,5.12949,6.105-.9059,11.58216-5.12949,11.58216-5.12949s26.922,12.97323,32.87006,14.332c5.94794,1.35729,11.42512,7.38938,9.23332,9.19937-2.19031,1.81181-65.99388,3.27412-74.81475-1.50753C680.02074,677.48845,681.42822,658.33106,690.82007,656.82188Z" class="colorffeba6 svgShape"/><path fill="#ffeba6" d="M710.85421 656.81691c-1.59333-1.44773 1.72269-7.68853 4.38211-7.2355 2.66107.45287 14.24472 12.67077 19.72207 14.93546a146.4126 146.4126 0 0113.148 6.637s-2.34883 2.86481-5.63587 1.6581S713.67214 659.37445 710.85421 656.81691zM944.87816 775.15528c.78283 1.65809-10.33022 7.8439-34.1205 7.8439s-41.16187-.75384-41.78949-1.96222c-.62763-1.20506 1.56417-9.35143 1.56417-9.35143z" class="colorffeba6 svgShape"/><path fill="#ffeba6" d="M878.35852,751.62224c1.39754-.22312,6.73078,6.0354,12.8341,5.1295,6.10481-.90426,11.58216-5.1295,11.58216-5.1295s26.92029,12.97323,32.86989,14.33052c5.94645,1.35878,11.42529,7.39253,9.23349,9.20252-2.192,1.81015-65.99405,3.27412-74.81492-1.50918C867.55754,772.289,868.96817,753.13142,878.35852,751.62224Z" class="colorffeba6 svgShape"/><path fill="#ffeba6" d="M898.39266,751.61743c-1.595-1.44772,1.721-7.68853,4.38212-7.23565,2.6609.453,14.24306,12.67242,19.7219,14.93545a146.59491,146.59491,0,0,1,13.148,6.63553s-2.34867,2.86647-5.63571,1.65959C926.72192,766.40563,901.2106,754.17481,898.39266,751.61743Z" class="colorffeba6 svgShape"/><rect width="156.711" height="14.028" x="631.45" y="593.174" fill="#ffeba6" class="colorffeba6 svgShape"/><rect width="156.711" height="14.028" x="631.45" y="686.592" fill="#ffeba6" class="colorffeba6 svgShape"/><rect width="156.711" height="14.028" x="631.45" y="780.013" fill="#ffeba6" class="colorffeba6 svgShape"/><rect width="156.711" height="14.03" x="631.45" y="873.432" fill="#ffeba6" class="colorffeba6 svgShape"/><rect width="18.661" height="356.579" x="631.45" y="593.174" fill="#ffeba6" class="colorffeba6 svgShape"/><rect width="18.661" height="356.579" x="770.245" y="593.174" fill="#ffeba6" class="colorffeba6 svgShape"/><rect width="156.708" height="14.028" x="827.234" y="593.174" fill="#ffeba6" class="colorffeba6 svgShape"/><rect width="156.708" height="14.028" x="827.234" y="686.592" fill="#ffeba6" class="colorffeba6 svgShape"/><rect width="156.708" height="14.028" x="827.234" y="780.013" fill="#ffeba6" class="colorffeba6 svgShape"/><rect width="156.708" height="14.03" x="827.234" y="873.432" fill="#ffeba6" class="colorffeba6 svgShape"/><rect width="18.661" height="356.579" x="827.234" y="593.174" fill="#ffeba6" class="colorffeba6 svgShape"/><rect width="18.661" height="356.579" x="966.028" y="593.174" fill="#ffeba6" class="colorffeba6 svgShape"/><path fill="#ffeba6" d="M95.28312,943.02848a10.70135,10.70135,0,1,0-10.70225,10.70209A10.70172,10.70172,0,0,0,95.28312,943.02848Z" class="colorffeba6 svgShape"/><path fill="#ffeba6" d="M90.68253 943.02848a6.10084 6.10084 0 10-6.10166 6.1015A6.10176 6.10176 0 0090.68253 943.02848zM153.802 943.02848a10.70135 10.70135 0 10-10.7006 10.70209A10.70137 10.70137 0 00153.802 943.02848zM349.0467 644.68647l-11.68237-18.20792a15.31493 15.31493 0 014.23485-10.02759 13.42193 13.42193 0 019.73159-4.22524h.22809c7.71768.12622 13.897 6.95423 13.77246 15.22019l-.05665 3.56035a1.54676 1.54676 0 001.46065 1.61271h.0227a1.53981 1.53981 0 001.48168-1.56086l.055-3.562c.14079-10.01318-7.34068-18.2856-16.69062-18.44412h-.2652c-9.23183 0-16.80706 7.96184-16.95432 17.873l-.00961.50472 11.33618 17.66924L295.874 659.829c.18287 1.045.33328 2.09639.487 3.14624L348.12473 647.705l57.81686 16.73584c.28955-1.01259.56618-2.02848.867-3.03957z" class="colorffeba6 svgShape"/><path fill="#ffeba6" d="M407.64325 795.911c-1.16629-50.06522 1.024-107.45821-6.19061-138.14773-2.83085-12.048-96.19475-12.06087-99.0208.00977a149.47875 149.47875 0 00-2.82755 18.5783c-3.7674 37.32969-5.15219 99.42034-4.38708 132.77722.20557 9.1573.35432 18.63661.44327 28.11575.35265 31.914.08729 63.88788-.76677 83.05339 0 0 21.55161 4.298 30.67809-.11811 0 0 12.5414-106.4279 16.42692-120.58847 1.74058-6.341 5.85087-27.37333 8.95521-52.12452 2.41989 26.25076 6.03209 48.81975 7.81309 55.31283 3.88551 14.16389 19.54566 117.40182 19.54566 117.40182 9.12814 4.42253 30.67643.11 30.67643.11C407.907 895.45272 408.57169 835.753 407.64325 795.911zM183.94787 646.4254L172.267 628.21748a15.31877 15.31877 0 014.23337-10.02924 13.42756 13.42756 0 019.73324-4.22359h.22809c7.71768.12622 13.89687 6.95423 13.7723 15.21854l-.05648 3.562a1.54668 1.54668 0 001.46065 1.61271h.02269a1.53775 1.53775 0 001.48-1.56252l.05665-3.56035c.14079-10.013-7.34234-18.28726-16.69062-18.44578h-.2652c-9.23017 0-16.80706 7.962-16.95432 17.87464l-.00961.50323L180.614 646.83785l-40.99688 11.41883c.18287 1.04489.33327 2.09639.487 3.14459l42.92332-11.959 35.79467 10.19589c.28955-1.01275.56617-2.03014.86549-3.03957z" class="colorffeba6 svgShape"/><path fill="#ffeba6" d="M238.20753,716.24814C261.61617,716.24814,282.1,696.4,282.1,696.4l-5.54841-7.5267c-15.24769-20.68611-37.20529-34.46819-61.50824-38.60929l-5.123-.872c-7.16443,8.31135-18.6964,11.91709-26.57906,13.47149-7.88267-1.5544-19.41463-5.16014-26.58072-13.47149l-5.123.872c-24.30146,4.1411-46.25889,17.92318-61.50824,38.60929L84.58087,696.4s20.48386,19.84812,43.894,19.84812l9.75428-16.7148L119.69606,800.86256s19.29984,9.05377,63.64522,9.05377,63.64505-9.05377,63.64505-9.05377L228.45342,699.53334Z" class="colorffeba6 svgShape"/><path fill="#ffeba6" d="M161.958,799.48589c-14.6426-1.98474-32.46556-8.06868-28.93436-26.29913,1.341-6.90884,6.46724-12.63846,8.63005-19.23507,3.09936-9.4485,2.55423-20.38531,2.87459-30.21545.2102-6.51428,1.65958-13.68186,1.26982-20.141-.58721-9.73655-5.39651-15.6941-11.73107-22.46712-13.68981-14.63613,1.705-22.18884,15.3933-30.37877-23.42471,4.57774-44.54266,18.0638-59.32937,38.124L84.58087,696.4s20.48552,19.84812,43.8925,19.84812l9.75411-16.7148L119.69606,800.86256s19.29984,9.05377,63.64522,9.05377c30.877,0,49.57989-4.38377,58.11122-7.04965C214.89132,803.13851,188.52743,803.08683,161.958,799.48589Z" class="colorffeba6 svgShape"/><rect width="389.86" height="7.019" x="110.175" y="618.408" fill="#ffeba6" class="colorffeba6 svgShape"/><rect width="10.343" height="303.768" x="110.175" y="618.408" fill="#ffeba6" class="colorffeba6 svgShape"/><path fill="#ffeba6" d="M163.51088 934.02159H67.18179a14.26807 14.26807 0 0114.26907-14.26741h67.79261a14.26761 14.26761 0 0114.26741 14.26741zM149.20139 943.02848a6.1 6.1 0 10-6.1 6.1015A6.1014 6.1014 0 00149.20139 943.02848zM474.79863 943.02848a10.70135 10.70135 0 10-10.70209 10.70209A10.70168 10.70168 0 00474.79863 943.02848z" class="colorffeba6 svgShape"/><path fill="#ffeba6" d="M470.198 943.02848a6.1 6.1 0 10-6.1015 6.1015A6.10173 6.10173 0 00470.198 943.02848zM533.31916 943.02848a10.70135 10.70135 0 10-10.7021 10.70209A10.70169 10.70169 0 00533.31916 943.02848z" class="colorffeba6 svgShape"/><rect width="10.345" height="303.768" x="489.69" y="618.408" fill="#ffeba6" class="colorffeba6 svgShape"/><path fill="#ffeba6" d="M543.02639 934.02159H446.699a14.26772 14.26772 0 0114.26742-14.26741h67.79277a14.26758 14.26758 0 0114.26725 14.26741zM528.71707 943.02848a6.10009 6.10009 0 10-6.1 6.1015A6.10045 6.10045 0 00528.71707 943.02848zM192.84957 615.81522a15.11261 15.11261 0 017.38292 13.368l-.055 3.56035a1.54715 1.54715 0 001.46065 1.61436h.02269a1.53676 1.53676 0 001.48-1.56252l.05665-3.56035a18.36261 18.36261 0 00-8.8386-16.13256C193.81379 613.97922 193.31553 614.88679 192.84957 615.81522zM284.892 614.3448a15.16736 15.16736 0 016.93966 13.09946l-.05665 3.562a1.54772 1.54772 0 001.45915 1.61271h.02253a1.53773 1.53773 0 001.48185-1.56086l.05649-3.562a18.39023 18.39023 0 00-8.46491-15.90447C285.88036 612.525 285.41606 613.452 284.892 614.3448z" class="colorffeba6 svgShape"/></g><path fill="#a89c2d" d="M904.5735,729.96561a25.33136,25.33136,0,0,0,14.40175-4.74934,122.88287,122.88287,0,0,1-2.14012,26.45931c-5.6584,9.12184-21.35912,25.90141-20.29784,25.80584a50.89076,50.89076,0,0,0,12.60285-2.93753,93.95441,93.95441,0,0,1-9.60221,15.69576c-7.61582,10.157-18.46682,18.28063-22.59169,30.67809a.7767.7767,0,0,1-.4739.54347.89737.89737,0,0,1-1.48666.65678c-20.49032-19.45339-24.15255-49.00891-27.15981-75.65755-.144-1.265-.28458-2.50735-.40268-3.77552,5.673,5.67463,11.71318,10.86558,18.88556,14.74132.9932.54033-12.82929-21.57728-19.59568-31.76671a59.81263,59.81263,0,0,1,3.5264-18.92449c4.79456-12.84718,13.01531-24.86763,20.99653-35.92884.32035-.45618.69239-.89464,1.01275-1.34917a61.35194,61.35194,0,0,0,8.81756,15.97073c.65512.85737-1.45254-16.173-2.74986-23.95046,2.00413-2.48632,4.00511-4.97247,6.08858-7.37629,2.73544-3.22062,6.10331-8.68173,11.01118-7.95389,4.76061.67466,15.60681,20.16847,16.98182,25.746.59516,2.37947,1.12571,4.81245,1.61105,7.25173.23455,1.0467.42537,2.11908.61471,3.17059a294.02217,294.02217,0,0,1,3.65261,29.67362c-.33808.52725-.67616,1.05466-1.05962,1.56418C913.23585,718.96586,903.59488,729.95915,904.5735,729.96561Z" class="colora89c2d svgShape"/><path fill="#948928" d="M885.8998,720.14988c10.11008-1.52856,17.83422-7.91181,25.25905-14.502,1.1065-.98177-.26686-2.84858-1.38462-1.857-6.95423,6.17288-14.20265,12.34246-23.63027,13.94871,2.15155-15.05025,4.65559-30.05361,7.60935-44.97946.2912-1.46545-1.99932-1.81977-2.28738-.36061q-5.87175,29.675-9.58432,59.67705a99.143,99.143,0,0,1-13.38255-26.89279c-.45452-1.41709-2.60442-.55325-2.14823.86217a101.24961,101.24961,0,0,0,14.3547,28.40215,1.03869,1.03869,0,0,0,.83965.45767q-.79831,6.55627-1.485,13.12695a62.28084,62.28084,0,0,1-9.93052-17.378c-.51929-1.39439-2.67068-.537-2.14989.86218a64.22551,64.22551,0,0,0,11.28781,19.26754,1.14627,1.14627,0,0,0,.47556.33162q-2.22252,21.61679-3.36622,43.33263a1.195,1.195,0,0,0-.13748.4966q-.46363,7.95141-.55176,15.87532-.16969,5.17554-.27977,10.3544a.91784.91784,0,0,0,.33327.78134c.59682,32.61116,5.42865,64.868,12.29062,96.78677.74888-.18271,1.49957-.351,2.25011-.52725-7.75164-36.07129-12.90532-72.57276-12.23082-109.54019q.20622-5.85261.49345-11.6986a1.08541,1.08541,0,0,0,1.0255-.12937,38.52259,38.52259,0,0,0,10.59062-10.83643c.80718-1.24084-.99652-2.695-1.81016-1.44458a36.81969,36.81969,0,0,1-9.69117,10.0632q1.93382-37.38393,7.14506-74.48479C885.83834,720.14177,885.86584,720.15469,885.8998,720.14988Z" class="color948928 svgShape"/><path fill="#bfb85b" d="M805.53166,787.163a25.15263,25.15263,0,0,1-13.62355,1.1663,87.84344,87.84344,0,0,0,9.50846,19.17677c7.46044,4.99367,25.68442,12.43953,24.75267,12.71616a51.569,51.569,0,0,1-11.56592,1.93621,74.77281,74.77281,0,0,0,12.721,8.63651c9.42746,5.1295,21.01276,7.66418,28.12055,15.62288a.65605.65605,0,0,0,.55971.25244.83675.83675,0,0,0,1.45584.0048c11.765-21.3525,6.28934-44.76263,1.10336-65.7739-.246-.998-.48865-1.9768-.7555-2.97a74.35466,74.35466,0,0,1-11.76984,17.28428c-.68742.73281,4.63456-20.43052,7.42649-30.30936a43.28033,43.28033,0,0,0-8.49572-13.06053c-7.80978-8.07515-18.2919-14.4049-28.2905-20.09245-.40433-.23621-.8476-.44326-1.25193-.681a48.01506,48.01506,0,0,1-2.85521,14.89818c-.30893.86052-3.46494-12.6287-4.62147-18.89865-2.42651-1.20986-4.85121-2.41824-7.3198-3.53932-3.261-1.52061-7.71106-4.51644-11.67111-2.35678-3.8499,2.072-7.40545,20.28493-6.95407,24.92743.18768,1.98326.44327,3.98573.73762,5.9771.10518.86383.25558,1.73247.39953,2.58487A210.03985,210.03985,0,0,0,788.66,778.16089c.44.28474.8799.571,1.354.82822C794.97037,781.74708,806.36154,786.83616,805.53166,787.163Z" class="colorbfb85b svgShape"/><path fill="#b0a954" d="M874.44866,923.56366c-3.44224-26.23784-8.70923-52.0614-17.67736-76.7624a.70436.70436,0,0,0,.05665-.69554q-1.59416-3.85569-3.24662-7.687-2.385-5.92293-5.08245-11.74713a.88135.88135,0,0,0-.262-.32831q-7.27458-15.93909-15.45309-31.45132a1.03685,1.03685,0,0,0,.30892-.406,50.76755,50.76755,0,0,0,3.9955-18.18688c.03727-1.22295-2.04139-1.1615-2.077.05814a49.07249,49.07249,0,0,1-3.39205,16.32173q-2.5018-4.7047-5.07782-9.37562a.97926.97926,0,0,0,.58075-.618,78.371,78.371,0,0,0,3.95028-26.05978c-.02435-1.21317-2.10136-1.15652-2.077.05831a76.59981,76.59981,0,0,1-3.56036,24.60558q-11.89928-21.29427-25.48879-41.68761c-.6697-1.00132-2.51216.01772-1.83931,1.02384q10.2686,15.36414,19.53754,31.2928c-8.48114,1.89265-16.43487-.36061-24.13963-2.71259-1.23753-.377-1.86349,1.47688-.639,1.85041,8.22886,2.51067,16.64854,4.76873,25.68458,2.59316.034-.00812.05334-.026.08415-.03562q15.17978,26.14234,27.71621,53.61581a31.71367,31.71367,0,0,1-11.16308-4.374c-1.05482-.67285-2.16612,1.01274-1.11942,1.67913a33.23718,33.23718,0,0,0,12.15148,4.66039,1.09884,1.09884,0,0,0,.91071-.241q1.94127,4.29722,3.81594,8.62342c11.317,27.55455,17.543,56.67807,21.43665,86.329C873.07051,923.79324,873.75793,923.672,874.44866,923.56366Z" class="colorb0a954 svgShape"/><path fill="#b0a954" d="M800.75648,759.12a53.06912,53.06912,0,0,1-18.01378-7.03987c.10518.86218.25558,1.73247.39953,2.58487a55.6851,55.6851,0,0,0,16.96393,6.3006C801.40348,761.20822,802.03442,759.36742,800.75648,759.12Z" class="colorb0a954 svgShape"/><path fill="#bfb85b" d="M996.19052,776.47861c-.12291,8.33719-19.40486,12.3731-25.52607,14.63779-13.54752,5.01454-26.77634,10.07778-36.79913,20.98046-11.80859,12.85364-21.99305,27.68391-32.18413,41.85426a2.38971,2.38971,0,0,1-2.407,1.03362,38.65147,38.65147,0,0,1-2.805-6.09355c-3.51182-8.65589-8.88879-24.49559-7.55585-33.52667a54.60906,54.60906,0,0,1,6.14539-18.00252,16.175,16.175,0,0,0,3.85636,7.62377c.487.4918,1.53187-11.38637,2.22741-16.7794.88967-1.09524,1.79392-2.1547,2.74836-3.18037a59.57982,59.57982,0,0,1,7.12568-6.561c.54182-.43515,1.08215-.86864,1.63855-1.26668a74.07728,74.07728,0,0,1,6.49324-4.31088q.883-.5193,1.81645-1.04008c2.0901-1.16315,4.26252-2.23885,6.48182-3.211a44.00977,44.00977,0,0,0,3.57989,11.883c.372.7926,1.28109-9.387,1.41692-13.89041,2.09159-.79261,4.22856-1.44773,6.39933-2.0674a34.24564,34.24564,0,0,0,2.6561,7.67561c.29766.58555,3.16413-6.30375,4.20089-9.3352a83.64851,83.64851,0,0,1,20.65216-1.616c.58887.02418,1.17922.04853,1.75036.10518,1.85372.12771,3.68492.33808,5.4805.61471,6.64514,1.032,22.29385,5.23948,22.60129,14.21887A1.338,1.338,0,0,1,996.19052,776.47861Z" class="colorbfb85b svgShape"/><path fill="#b0a954" d="M922.01631 798.38751c-16.38 16.16337-21.4658 45.85952-22.5188 54.29378a38.29573 38.29573 0 00-3.37119 10.9658c-1.94913 13.32589-1.3765 27.38956-1.04488 40.81732.11 4.41773.30561 8.83065.54017 13.24175q1.138-.21592 2.27445-.42206c-.14394-2.784-.275-5.56945-.37054-8.35509-.40765-12.0221-.39622-24.07336.15537-36.09067.28474-6.21.86218-12.45079 3.2675-18.20941a2.54029 2.54029 0 00.73131-.67781c10.19092-14.17035 20.37537-29.00062 32.184-41.85591 10.02279-10.901 23.25178-15.96427 36.79765-20.97881 6.12269-2.26469 25.403-6.3006 25.52755-14.63945C970.49947 779.47444 940.86958 779.78006 922.01631 798.38751zM921.31431 790.45482a53.40726 53.40726 0 01-.34951-18.60745q-.934.51929-1.81645 1.04008a54.71312 54.71312 0 00.51267 17.9394C919.86973 791.89923 921.50679 791.50947 921.31431 790.45482zM915.04767 793.7773a70.41638 70.41638 0 01-2.39256-16.579c-.5564.398-1.09673.83153-1.63855 1.26668a71.65944 71.65944 0 002.37616 15.70056C913.67266 795.20731 915.32578 794.83527 915.04767 793.7773z" class="colorb0a954 svgShape"/><path fill="#fffffe" d="M942.45,905.14388a60.0047,60.0047,0,0,1-24.86912,48.70645h-70.5524a60.14482,60.14482,0,0,1-23.4151-61.81733,58.79963,58.79963,0,0,1,3.30973-10.37379H937.68457a58.82947,58.82947,0,0,1,3.321,10.37379A59.82975,59.82975,0,0,1,942.45,905.14388Z" class="colorfffffe svgShape"/><path fill="#b0b0b0" d="M942.45,905.14388a60.0047,60.0047,0,0,1-24.86912,48.70645h-70.5524c92.17987,4.57774,90.65611-72.19112,90.65611-72.19112a58.82947,58.82947,0,0,1,3.321,10.37379A59.82975,59.82975,0,0,1,942.45,905.14388Z" class="colorb0b0b0 svgShape"/><path fill="#e8e8e8" d="M848.88715,881.65921H826.92309a58.79963,58.79963,0,0,0-3.30973,10.37379,60.08735,60.08735,0,0,0,23.4151,61.81733H856.794C844.9854,945.27693,839.48222,906.11605,848.88715,881.65921Z" class="colore8e8e8 svgShape"/><path fill="#3c89d9" d="M373.15237,679.59627a3.06965,3.06965,0,0,0,2.48151-4.8658L331.837,609.26235H453.62238l52.21015,69.31487a3.0694,3.0694,0,0,0,4.56829-4.10068l-53.12417-70.32911a3.07172,3.07172,0,0,0-2.28572-1.0159H325.83385a3.06344,3.06344,0,0,0-2.48466,4.86248l47.31537,70.33077A3.06073,3.06073,0,0,0,373.15237,679.59627Z" class="color3c89d9 svgShape"/><path fill="#2d6fab" d="M315.89207,612.5315H464.14988a5.625,5.625,0,0,0,5.62444-5.62445h0a5.62469,5.62469,0,0,0-5.62444-5.62278H315.89207a5.62341,5.62341,0,0,0-5.623,5.62278h0A5.62377,5.62377,0,0,0,315.89207,612.5315Z" class="color2d6fab svgShape"/><path fill="#3c89d9" d="M683.98394,723.56314a3.069,3.069,0,0,0,.74093-6.04666l-175.864-43.96688a3.19073,3.19073,0,0,0-.74407-.0873H373.15088a3.06533,3.06533,0,1,0,0,6.13065H507.73975l175.497,43.87793A3.1393,3.1393,0,0,0,683.98394,723.56314Z" class="color3c89d9 svgShape"/><path fill="#381907" d="M443.73227,694.35051h3.20935V673.679a25.29061,25.29061,0,1,1,50.58121,0v20.67154h3.20786V673.679a28.49921,28.49921,0,0,0-56.99842,0Z" class="color381907 svgShape"/><polygon fill="#cc6a5e" points="535.118 819.675 400.162 819.675 419.429 682.579 515.851 682.579 535.118 819.675" class="colorcc6a5e svgShape"/><polygon fill="#ff8580" points="547.963 819.675 413.007 819.675 432.275 682.579 528.696 682.579 547.963 819.675" class="colorff8580 svgShape"/><path fill="#381907" d="M458.04656 694.35051a4.81643 4.81643 0 10-4.8156 4.81725A4.81628 4.81628 0 00458.04656 694.35051zM510.22921 694.35051a4.81643 4.81643 0 10-4.8156 4.81725A4.81522 4.81522 0 00510.22921 694.35051z" class="color381907 svgShape"/><path fill="#381907" d="M451.62471 694.35051h3.2077V673.679a25.29143 25.29143 0 0150.58286 0v20.67154H508.623V673.679a28.49913 28.49913 0 00-56.99825 0zM543.53922 717.77853h2.61088V700.97146a20.5623 20.5623 0 0141.1246 0v16.80707h2.60922V700.97146a23.17235 23.17235 0 00-46.3447 0z" class="color381907 svgShape"/><polygon fill="#8ec7e3" points="617.843 819.675 508.117 819.675 523.782 708.21 602.178 708.21 617.843 819.675" class="color8ec7e3 svgShape"/><polygon fill="#c5ecfd" points="628.286 819.675 518.56 819.675 534.225 708.21 612.621 708.21 628.286 819.675" class="colorc5ecfd svgShape"/><path fill="#381907" d="M555.17969 717.78018a3.91632 3.91632 0 10-3.91632 3.91616A3.91647 3.91647 0 00555.17969 717.78018zM597.60806 717.78018a3.91624 3.91624 0 10-3.91615 3.91616A3.91642 3.91642 0 00597.60806 717.78018z" class="color381907 svgShape"/><path fill="#381907" d="M549.95958,717.77853h2.60923V700.97146a20.56155,20.56155,0,0,1,41.1231,0v16.80707h2.61071V700.97146a23.17152,23.17152,0,0,0-46.343,0Z" class="color381907 svgShape"/><rect width="95.567" height="54.868" x="555.18" y="764.806" fill="#bf4235" transform="rotate(180 602.963 792.24)" class="colorbf4235 svgShape"/><rect width="95.567" height="54.868" x="566.155" y="764.806" fill="#ff5847" transform="rotate(180 613.939 792.24)" class="colorff5847 svgShape"/><path fill="#3c89d9" d="M394.66356,823.24719,370.12423,677.03392a3.06724,3.06724,0,0,1,3.67846-3.5037L575.9256,717.429H683.98079a3.06563,3.06563,0,0,1,3.06541,3.0654V822.74081a3.06563,3.06563,0,0,1-3.06541,3.06541H397.69A3.06724,3.06724,0,0,1,394.66356,823.24719Zm286.25183-99.68736H575.59713a3.07365,3.07365,0,0,1-.65347-.06791l-198.01891-43.006,23.36159,139.18947H680.91539Z" class="color3c89d9 svgShape"/><path fill="#3c89d9" d="M575.59713 825.80622a3.068 3.068 0 003.06706-3.06541V720.49442a3.06624 3.06624 0 00-6.13247 0V822.74081A3.06563 3.06563 0 00575.59713 825.80622zM649.21494 824.27435a1.53341 1.53341 0 001.53188-1.53354V720.49442a1.53188 1.53188 0 00-3.06376 0V822.74081A1.53235 1.53235 0 00649.21494 824.27435zM612.406 824.27435a1.53472 1.53472 0 001.53354-1.53354V720.49442a1.53354 1.53354 0 00-3.06707 0V822.74081A1.53376 1.53376 0 00612.406 824.27435zM538.78988 824.27435a1.53376 1.53376 0 001.53353-1.53354V713.33645a1.53271 1.53271 0 10-3.06541 0V822.74081A1.53447 1.53447 0 00538.78988 824.27435zM501.981 824.27435a1.53471 1.53471 0 001.53353-1.53354V705.15629a1.5327 1.5327 0 10-3.0654 0V822.74081A1.5334 1.5334 0 00501.981 824.27435zM465.17223 824.27435a1.53376 1.53376 0 001.53353-1.53354v-125.828a1.5327 1.5327 0 00-3.0654 0v125.828A1.53329 1.53329 0 00465.17223 824.27435zM428.36333 824.27435a1.53482 1.53482 0 001.53353-1.53354V688.84748a1.53271 1.53271 0 10-3.06541 0V822.74081A1.5333 1.5333 0 00428.36333 824.27435zM391.55442 784.9079A1.53319 1.53319 0 00393.088 783.376V680.52321a1.53353 1.53353 0 00-3.06706 0V783.376A1.5333 1.5333 0 00391.55442 784.9079z" class="color3c89d9 svgShape"/><path fill="#3c89d9" d="M386.45242 757.326H681.433a1.53188 1.53188 0 100-3.06375H386.45242a1.53188 1.53188 0 100 3.06375zM380.95586 724.58384H575.59713a1.5327 1.5327 0 000-3.0654H380.95586a1.5327 1.5327 0 000 3.0654zM393.07818 792.62724H681.433a1.53271 1.53271 0 000-3.06541H393.07818a1.53271 1.53271 0 100 3.06541zM377.74965 940.32534c.09061 0 .18122-.00646.27348-.01292a3.0679 3.0679 0 002.78381-3.32746l-4.4694-50.125 36.20381-33.23083a3.07053 3.07053 0 00.728-3.51182l-12.77926-28.62692a3.06658 3.06658 0 00-5.6001 2.50089l11.87651 26.613L371.077 883.361a3.06544 3.06544 0 00-.98194 2.53319l4.6006 51.63421A3.07145 3.07145 0 00377.74965 940.32534zM441.02764 940.32534c.09226 0 .1827-.00646.275-.01292a3.06814 3.06814 0 002.784-3.32746l-4.46957-50.125 36.204-33.23083a3.07022 3.07022 0 00.72784-3.51182l-12.7791-28.62692a3.06733 3.06733 0 00-5.60175 2.50089l11.87816 26.613L434.355 883.361a3.07 3.07 0 00-.98194 2.53319l4.60209 51.63421A3.07242 3.07242 0 00441.02764 940.32534z" class="color3c89d9 svgShape"/><path fill="#3c89d9" d="M410.46931 854.4348h63.27947a3.0654 3.0654 0 100-6.13081H410.46931a3.06541 3.06541 0 100 6.13081zM373.15088 888.68782H436.4287a3.06541 3.06541 0 000-6.13082H373.15088a3.06541 3.06541 0 100 6.13082z" class="color3c89d9 svgShape"/><circle cx="440.801" cy="934.685" r="16.948" fill="#3c89d9" transform="rotate(-45 440.801 934.685)" class="color3c89d9 svgShape"/><path fill="#3c89d9" d="M366.83239,934.68466a16.947,16.947,0,1,1,16.94621,16.94787A16.947,16.947,0,0,1,366.83239,934.68466Z" class="color3c89d9 svgShape"/><path fill="#2d6fab" d="M374.46924 934.68466a9.30936 9.30936 0 119.30936 9.30787A9.31019 9.31019 0 01374.46924 934.68466zM431.49334 934.68466a9.30861 9.30861 0 119.30786 9.30787A9.30891 9.30891 0 01431.49334 934.68466z" class="color2d6fab svgShape"/><path fill="#3c89d9" d="M650.08523,934.68466a16.947,16.947,0,1,1,16.9477,16.94787A16.94737,16.94737,0,0,1,650.08523,934.68466Z" class="color3c89d9 svgShape"/><circle cx="610.009" cy="934.685" r="16.948" fill="#3c89d9" transform="rotate(-76.717 610.009 934.685)" class="color3c89d9 svgShape"/><rect width="325.655" height="12.781" x="360.368" y="907.604" fill="#2d6fab" transform="rotate(180 523.196 913.995)" class="color2d6fab svgShape"/><path fill="#2d6fab" d="M600.71555 934.68466a9.30778 9.30778 0 119.3077 9.30787A9.30877 9.30877 0 01600.71555 934.68466zM657.73649 934.68466a9.30862 9.30862 0 119.30787 9.30787A9.30881 9.30881 0 01657.73649 934.68466z" class="color2d6fab svgShape"/><path fill="#ffa59c" d="M380.23117 587.26748c.34619-.03876 6.11772-4.90621 11.89423-4.07965 5.46592.783 11.91543 4.16545 16.31692 7.87786a31.10854 31.10854 0 018.50217 10.63269c1.66622 3.46.2006 4.87059-.53055 5.08577.00811 3.8547-4.92394 7.05593-7.51858 3.18666-.50472-.75219-.99652-1.52708-1.49-2.3003a4.56291 4.56291 0 01-7.2403-.9609c-1.401-2.56384-1.85869-6.72432-3.994-8.74153-2.09158-1.97348-7.04467-.55971-11.959-1.10965C378.58119 597.48125 374.56465 587.89361 380.23117 587.26748zM318.54336 578.94171c-3.397 5.28305-8.06868 8.30473-12.74034 6.98322a8.92 8.92 0 01-2.64169-1.22609 11.71909 11.71909 0 01-1.79558-1.60476c-.8476-.85092-1.886-2.03014-3.0669-3.49244-.32847-.42537-.75384-.84926-1.0838-1.32151-.47242-.51764-.89614-1.08546-1.36855-1.69851a.046.046 0 01-.04688-.047c-11.41883-14.58115-31.33156-44.96638-39.63645-66.43715-.47242-1.27463-.94318-2.50073-1.32-3.67995-10.0034-29.68008 21.65663-20.809 25.479-27.36769 0 0 28.87621 45.43962 39.73037 66.01094a23.51848 23.51848 0 011.13234 2.45385A35.54463 35.54463 0 01318.54336 578.94171z" class="colorffa59c svgShape"/><path fill="#ffa59c" d="M393.09607,585.35876c-6.04021,11.3703-9.81407,11.51259-9.81407,11.51259s-12.12895.09375-27.32165-.99155c-17.26971-1.17938-38.50245-3.91466-50.15733-9.95487a27.31248,27.31248,0,0,1-3.86944-2.407c-.18916-.1408-.3785-.28309-.56783-.42388a22.48334,22.48334,0,0,1-5.42533-6.3233.24906.24906,0,0,1-.09392-.18916.046.046,0,0,1-.04688-.047,21.861,21.861,0,0,1-2.26469-15.288c1.98-9.76719,9.6264-18.1675,17.31659-18.5445,1.74705-.09541,5.19095,1.69851,10.33337,4.81245C334.019,555.15938,357.612,570.77911,393.09607,585.35876Z" class="colorffa59c svgShape"/><path fill="#c48b86" d="M355.96035,595.8798c-17.26971-1.17938-38.50245-3.91466-50.15733-9.95487a8.92,8.92,0,0,1-2.64169-1.22609c-.37849-.37867-.80221-.75551-1.22775-1.18088-1.13069-1.13234-2.35844-2.454-3.63473-3.91632-.32847-.42537-.75384-.84926-1.0838-1.32151a12.771,12.771,0,0,1-1.27463-1.50935c-16.98514-20.38514-42.18273-60.72855-42.18273-60.72855l2.40548-5.9448,5.00162-12.221s13.5896,40.81567,32.37014,63.37025c.23621.28309.42538.566.65993.80222,7.03026,8.25635,15.71365,13.30651,24.3485,16.89286C335.05923,585.82952,351.3841,587.43411,355.96035,595.8798Z" class="colorc48b86 svgShape"/><path fill="#3c89d9" d="M241.42831,436.10775s35.45974,23.56385,44.18354,44.70118c0,0-20.17494,31.59857-41.38995,37.00138,0,0-14.62653-70.13995-11.52385-76.91446C235.80056,434.12135,241.42831,436.10775,241.42831,436.10775Z" class="color3c89d9 svgShape"/><path fill="#2d6fab" d="M255.88008,455.583s4.82853,24.20356,7.8406,50.81658l14.05538-14.895S264.84656,464.92069,255.88008,455.583Z" class="color2d6fab svgShape"/><path fill="#381907" d="M237.12869,918.1963l-5.7167-13.13491,37.3976-79.20829L225.519,697.5857,189.74541,945.17655l-12.29874-.74241S165.95181,745.57723,163.553,700.51693c-1.61917-30.44519,0-79.02393,0-79.02393,3.95343.1731,109.61142-5.055,109.61142-5.055,5.41242,29.08476,36.45128,186.33158,34.9469,205.2723C305.50205,854.54479,237.12869,918.1963,237.12869,918.1963Z" class="color381907 svgShape"/><path fill="#23100f" d="M231.412 905.06139l37.3976-79.20829L225.69528 696.86763s21.99967-7.7 27.1777-15.657a47.49729 47.49729 0 01-14.27072 20.33346l45.34669 123.366s-50.29017 74.36337-50.29017 88.43665zM180.98284 944.87574l-3.651-2.21449S165.5637 756.66278 163.553 694.5786c-.72138-22.22611 0-73.0856 0-73.0856l33.35689-1.789s-8.61713 44.376-12.69827 90.70465C181.00868 746.76456 174.0238 879.92194 180.98284 944.87574z" class="color23100f svgShape"/><path fill="#ff8580" d="M232.038,904.4563l-9.044,6.0677,30.48064,32.26181s-2.11908-17.84068-11.77778-28.0851c-.9011,1.0805-9.71866-4.88517-9.5391-9.8255Z" class="colorff8580 svgShape"/><rect width="3.043" height="44.384" x="235.607" y="905.508" fill="#3c1e01" transform="rotate(-43.374 237.129 927.7)" class="color3c1e01 svgShape"/><path fill="#ff8580" d="M176.51824,937.85045l-1.802,10.73936h44.38413s-14.42262-10.7102-28.504-10.72478c.16664,1.39588-10.225,3.70744-13.69313.186Z" class="colorff8580 svgShape"/><rect width="44.384" height="3.043" x="174.716" y="948.59" fill="#3c1e01" class="color3c1e01 svgShape"/><path fill="#23100f" d="M192.03278,408.82171s-20.27532-15.35271-17.49614-23.37137c2.77735-8.01766,21.59186,10.75891,21.59186,10.75891Z" class="color23100f svgShape"/><path fill="#ffa59c" d="M243.51344,401.50936c-.52576,1.3336-1.01275,2.5857-1.37336,3.75763a64.78953,64.78953,0,0,0-2.26468,9.417,71.6125,71.6125,0,0,0-1.04985,8.68819,80.812,80.812,0,0,0,.32184,14.99293c-24.57,12.124-51.20237-4.56581-51.20237-4.56581a80.882,80.882,0,0,0,2.83086-11.84172,182.45979,182.45979,0,0,0,2.22095-19.76248,1.51177,1.51177,0,0,0,.04042-.40268,1.6939,1.6939,0,0,0,.04041-.28309Z" class="colorffa59c svgShape"/><path fill="#c48b86" d="M243.51344,401.50936c-.52576,1.3336-1.01275,2.5857-1.37336,3.75763a38.76146,38.76146,0,0,0-2.26468,9.417,71.6125,71.6125,0,0,0-1.04985,8.68819c-11.67923,5.13265-24.85306,7.19359-34.43258,5.13265a32.57657,32.57657,0,0,1-13.61709-6.54725,182.45979,182.45979,0,0,0,2.22095-19.76248,1.51177,1.51177,0,0,0,.04042-.40268,1.6939,1.6939,0,0,0,.04041-.28309Z" class="colorc48b86 svgShape"/><path fill="#ffa59c" d="M185.40205,392.13275s8.73027,13.57105,16.715,20.99836c8.60405,7.99994,45.42422,6.41307,52.59677-7.36023,6.35393-12.20166-2.52359-66.41925-5.46758-71.74206-2.9425-5.32528-50.17356-23.221-64.708-.08812C170.00247,357.07421,185.40205,392.13275,185.40205,392.13275Z" class="colorffa59c svgShape"/><path fill="#3c1e01" d="M266.3024,308.05237c.22163,5.36074-.92363,11.42927-4.22524,15.90431a20.22017,20.22017,0,0,0-3.86448-19.15822c-21.71012-13.95434-72.83481-17.08932-88.61306,21.07439a20.80485,20.80485,0,0,1-4.0553-13.95451c.16333-2.58968-3.8759-2.38511-4.03757.19016a24.43076,24.43076,0,0,0,4.65874,16.00634,41.33714,41.33714,0,0,0-11.29427,4.2592c-2.24845,1.31836-.08249,4.73146,2.16116,3.41558a35.8086,35.8086,0,0,1,9.552-3.638c-4.5731,5.92774-8.77068,33.65687,5.63571,53.14438,3.89694,5.271,14.3499,6.15335,17.433,5.11492,14.29011-4.80516,14.16223-31.8848,5.05993-52.18513,13.8856-8.26448,37.744-8.012,54.5348-4.19775a8.48337,8.48337,0,0,0,6.27144-1.15653,12.95763,12.95763,0,0,0,5.68109-2.37716c6.7876-5.03077,9.40162-14.39512,9.07166-22.44194C270.17,305.50626,266.19888,305.49234,266.3024,308.05237Z" class="color3c1e01 svgShape"/><path fill="#3c89d9" d="M186.46334,427.35231s-29.3874,14.087-41.51138,23.517c0,0,19.69292,146.88843,16.66147,188.64893,0,0,95.36338-1.52541,114.22311-23.08017,0,0-.8153-86.41149-7.14174-120.44287-6.08377-32.72529-12.44914-50.45764-27.26649-59.88742C241.42831,436.10775,218.7929,450.92593,186.46334,427.35231Z" class="color3c89d9 svgShape"/><path fill="#2d6fab" d="M151.84789,525.68966s13.8,95.97975,9.76554,113.82855c0,0,17.082-.67616,32.07894-1.692,0,0-21.47061-74.53979-19.565-107.38715,2.91815-50.31187-31.93831-72.263-31.93831-72.263S157.90913,511.54532,151.84789,525.68966Z" class="color2d6fab svgShape"/><path fill="#ffa59c" d="M191.18187,378.39441c-2.78878-3.9786-13.0607-8.46259-16.414-4.02217-6.36686,8.43012,1.07735,24.35066,15.38037,20.83884C195.36173,393.93165,193.60027,381.84312,191.18187,378.39441Z" class="colorffa59c svgShape"/><path fill="#c48b86" d="M186.46483,381.41609s-6.96053-6.07814-9.15084-3.98341c-4.8204,4.611,1.70017,12.50347,4.01488,13.89289,0,0-.57263-6.265,1.03859-8.067A6.15545,6.15545,0,0,1,186.46483,381.41609Z" class="colorc48b86 svgShape"/><path fill="#2d6fab" d="M169.54943,450.47935l21.22645,62.73848s16.77956,3.14475,27.95391,2.81628C211.09791,475.13347,181.0216,451.82206,169.54943,450.47935Z" class="color2d6fab svgShape"/><path fill="#ffa59c" d="M154.26132 473.49078C143.6934 509.24171 178.80545 581.01872 206.973 605.31522c6.85054 5.90918 32.77448-23.87924 31.29445-27.29879C234.56634 569.46572 188.838 491.372 188.838 491.372S185.46351 475.995 154.26132 473.49078zM330.61235 597.91143a76.83752 76.83752 0 00-19.39194 5.01139c-2.36507.969-3.90009 1.89265-4.29 4.00527a2.0272 2.0272 0 00.32035 3.164c6.692 4.2544 12.15313 2.949 18.73036-.5564 6.80846-3.62827 10.30256-.70366 16.36049 1.51564 2.24365.82176 3.48929 1.24233 5.644.30263a2.024 2.024 0 001.00131-1.7439C349.57411 602.57348 336.27075 597.31461 330.61235 597.91143z" class="colorffa59c svgShape"/><path fill="#ffa59c" d="M336.86441,594.16986a94.54433,94.54433,0,0,0-19.58292,2.83417c-2.40217.62431-7.61565-1.81993-8.09933-.18933-.81845.626-.99,6.2408.24433,6.94611,6.49473,3.701,15.58245,1.616,22.30362-.75716,6.95738-2.45716,10.31548.026,16.2684,2.09805,2.20323.76842,3.42932,1.168,5.62278.55491a1.56462,1.56462,0,0,0,1.0742-1.31025C355.59,598.87879,342.5407,594.02111,336.86441,594.16986Z" class="colorffa59c svgShape"/><path fill="#ffa59c" d="M339.64193,591.97475a94.44348,94.44348,0,0,0-19.58127,2.83251c-2.40217.626-3.97612,1.26171-4.4598,2.894a1.39923,1.39923,0,0,0,.18122,2.49111c6.49473,3.701,12.00587,2.98772,18.727.61305,6.95738-2.4555,10.31565.0275,16.26674,2.09971,2.20488.76991,3.431,1.16944,5.623.55325a1.55383,1.55383,0,0,0,1.074-1.3071C358.369,596.682,345.31805,591.82434,339.64193,591.97475Z" class="colorffa59c svgShape"/><path fill="#ffa59c" d="M354.11623,596.76782h.00332l-.00646-.00646c-1.3119-2.352-4.586-4.58105-8.13345-6.181a27.22785,27.22785,0,0,0-16.55628-3.03129c-15.11,2.04951-24.03776,8.50367-24.03776,8.50367l7.41671.84611c1.01275,5.5176,12.84552,3.27726,18.9278,1.129,6.95738-2.45716,10.31714.026,16.2684,2.09971,2.20323.76842,3.42932,1.16961,5.62278.55325a1.56077,1.56077,0,0,0,1.0742-1.30859A4.01534,4.01534,0,0,0,354.11623,596.76782Z" class="colorffa59c svgShape"/><path fill="#ffa59c" d="M201.76105,598.84317c3.22062,7.88913,13.86291,12.3862,31.18281,14.74629,13.54752,1.84395,83.36546-1.14211,83.36546-1.14211l4.9791-16.62917s-80.44417-27.57375-95.27759-23.32267C211.17725,576.74494,196.2191,585.26815,201.76105,598.84317Z" class="colorffa59c svgShape"/><path fill="#c48b86" d="M200.26645,510.60546l35.10873,61.77675a192.05907,192.05907,0,0,1,19.64919,3.72053s-10.56792,5.2216-23.59466-1.9266c-13.83541-7.59312-29.55536-39.6931-37.2149-45.54878-7.65938-5.8575-44.706-3.829-44.706-3.829l-6.61615-11.67591,27.55288-12.89886Z" class="colorc48b86 svgShape"/><path fill="#3c89d9" d="M142.94933,451.00428c-16.608,9.08457-14.4372,48.89412,8.499,88.0777,0,0,57.84752-25.53733,67.28144-23.04787C218.72979,516.03411,183.81353,428.6546,142.94933,451.00428Z" class="color3c89d9 svgShape"/><path fill="#ffa59c" d="M386.1208,602.347c-1.58521-2.29549-4.23485-7.24046-4.38211-9.89822-.06791-1.26834,3.68657-.56617,4.62312-.88818,1.25211-1.26983,3.90986-.98509,4.06358,1.299a23.02388,23.02388,0,0,0,.75053,5.33324c.64055,2.00263,1.92181,2.38759,3.69138,3.25473,2.30991,1.129,1.34271,5.08246-1.35878,4.52937C390.85888,605.43332,387.76267,604.72652,386.1208,602.347Z" class="colorffa59c svgShape"/><path fill="#161228" d="M235.22312 397.79761a13.51344 13.51344 0 01-8.423-3.33955.97636.97636 0 011.32813-1.43149c.03561.03313 3.53931 3.211 7.95373 2.77652 2.98291-.29832 5.74585-2.17722 8.21594-5.58386a.97631.97631 0 011.58041 1.14676c-2.81628 3.88551-6.05313 6.03292-9.62475 6.38243C235.90408 397.78237 235.5612 397.79761 235.22312 397.79761zM240.91548 361.49674c.44641 2.28969 2.26949 3.93156 4.17191 3.67448 1.96851-.27265 3.24645-2.492 2.779-4.96452-.46745-2.47422-2.48947-4.1088-4.43545-3.6493C241.55768 356.99486 240.47221 359.20224 240.91548 361.49674zM216.17241 364.80647c.49494 2.54528 2.52193 4.36919 4.636 4.08445 2.187-.30247 3.61054-2.7694 3.08976-5.51777-.52095-2.749-2.76625-4.5673-4.93056-4.05612C216.88733 359.80385 215.68061 362.25787 216.17241 364.80647zM235.39622 382.1537a14.72917 14.72917 0 01-3.27412-.29038.97666.97666 0 11.58555-1.86349c.9609.30329 5.40132.29766 6.39618-.32267-.21683-.52327-.52907-1.09673-.94483-1.8635a71.93939 71.93939 0 01-4.25109-9.26579.97631.97631 0 011.82142-.70366 70.15026 70.15026 0 004.14773 9.03936 20.53976 20.53976 0 011.11279 2.25011 1.64546 1.64546 0 01-.33973 1.78249C239.74918 381.87707 237.41658 382.1537 235.39622 382.1537zM207.819 355.51566a1.95374 1.95374 0 01-1.33293-3.38245 19.28194 19.28194 0 0117.273-4.56813 1.95306 1.95306 0 01-1.00778 3.77387h0a15.30711 15.30711 0 00-13.60252 3.65344A1.94494 1.94494 0 01207.819 355.51566zM251.25845 351.00253a1.9486 1.9486 0 01-1.24547-.44807c-5.54841-4.59331-12.08522-1.9049-12.15-1.87575a1.95343 1.95343 0 11-1.52376-3.59746c.35746-.1514 8.808-3.622 16.16487 2.46363a1.95332 1.95332 0 01-1.24565 3.45765z" class="color161228 svgShape"/><path fill="#ffa59c" d="M715.72166,593.98219c-.43681,4.28189-4.66686,6.74237-16.084,6.126-8.93086-.482-60.05075-14.46635-60.05075-14.46635l-1.15172-11.29576s49.57343-4.65725,64.0802-3.2564C712.56084,572.06186,716.69862,584.44159,715.72166,593.98219Z" class="colorffa59c svgShape"/><path fill="#3c1e01" d="M745.51653,374.88408s-26.13911,47.68492-15.492,115.8335c0,0,14.97106,10.51541,39.29356.09144,0,0-9.80115-50.37333-6.7924-63.46069C762.52568,427.34833,753.37651,390.63483,745.51653,374.88408Z" class="color3c1e01 svgShape"/><path fill="#23100f" d="M741.1538,393.12115s-8.66715,40.05387-7.14671,52.70526c2.21135,18.40686,5.60026,41.6091,11.93316,49.51678,0,0,19.36461-.61139,23.37783-4.53417,4.01173-3.92344-9.68471-102.7251-14.15245-103.37128C750.69605,386.79223,741.1538,393.12115,741.1538,393.12115Z" class="color23100f svgShape"/><path fill="#ffa59c" d="M775.2208,488.787c8.03473,5.32363-10.92372,53.17437-58.56425,106.50874-12.20978,13.66894-25.55986-15.93677-19.2528-24.78183,6.30706-8.84522,39.52481-57.81686,39.52481-57.81686S760.23516,478.86128,775.2208,488.787Z" class="colorffa59c svgShape"/><path fill="#ff8575" d="M742.53362,589.87355c8.90336,6.6839,37.91855,4.38211,54.80645.93821a42.45726,42.45726,0,0,1,12.095-.90591s-2.991-11.80213,1.383-27.92972c1.49-5.58734,4.11361-14.26741,6.81178-23.6528-.00646-.03893.03081-.04539.02435-.08249q1.02393-3.53766,2.02848-7.18547c.19247-.69074.37849-1.41709.56948-2.10782,1.4638-5.27344,2.78381-10.48377,3.84012-15.18607a9.18667,9.18667,0,0,0,.25245-1.24084c1.63374-7.4669,2.47969-13.64128,1.76311-16.72773a3.96217,3.96217,0,0,0-.15206-.66969c-1.2261-3.34933-5.3074-6.908-9.80927-9.97094-.87344-.58721-1.74539-1.17359-2.61072-1.722a.44659.44659,0,0,1-.12622-.05582,112.30909,112.30909,0,0,0-12.08687-6.531c-9.7672,6.91448-31.78294,9.60122-31.78294,9.60122s-34.15429,31.4659-37.98481,43.05617c-3.82737,11.62738,8.75776,21.089,8.75776,21.089C742.68733,558.88322,743.24373,579.93492,742.53362,589.87355Z" class="colorff8575 svgShape"/><path fill="#ffa59c" d="M764.04315,458.73173c2.89065,10.27341,5.29431,20.98212,5.49656,27.7129-6.63222,14.89669,30.34979-4.319,30.34979-4.319a79.55122,79.55122,0,0,1-2.32614-9.25105c-1.3442-6.74718-2.14178-13.55978-2.34072-15.53558a1.59756,1.59756,0,0,1-.04373-.31787,1.539,1.539,0,0,1-.03876-.22163Z" class="colorffa59c svgShape"/><path fill="#c48b86" d="M764.04315,458.73173c.38976,1.03362.75053,2.00579,1.032,2.91732a38.2353,38.2353,0,0,1,1.85869,7.35609c.49975,2.40631,1.07735,6.16643,1.58853,8.69482,7.45232,3.60888,23.32118-9.35475,27.25191-16.4521-1.08381-6.91281-1.56915-14.57219-1.56915-14.57219Z" class="colorc48b86 svgShape"/><path fill="#ffa59c" d="M802.38062,406.4487s-1.51084,35.4864-5.58237,44.76677c-4.07153,9.28021-22.60626,18.39062-31.89789,18.36876-12.35373-.02833-21.9316-18.96971-24.0588-26.59845-2.1272-7.62625-.63889-32.39433.089-38.1102.728-5.71588,6.0046-21.4229,8.39219-23.79923C751.71029,378.69936,795.52842,382.85089,802.38062,406.4487Z" class="colorffa59c svgShape"/><path fill="#ff5847" d="M740.29643,550.57518c13.58794.41246,36.08753,4.2867,47.99468-2.68359,0,0-13.77562,13.73023-46.10684,15.36563C742.18427,563.25722,741.39481,555.3131,740.29643,550.57518Z" class="colorff5847 svgShape"/><path fill="#ffa59c" d="M744.88079,591.60437s-10.16342,147.99742-8.258,191.82515C738.52835,827.25561,799.346,929.476,799.346,929.476l5.94148-5.25406s-26.744-135.07587-26.744-147.78059c0-12.70158-3.17391-179.12027-3.17391-179.12027Z" class="colorffa59c svgShape"/><path fill="#c48b86" d="M764.33269,804.389l4.27213,68.86035-8.292-17.77442s-1.7762-34.57006-5.90422-42.50938c-4.12983-7.94081-16.52249-18.575-16.52249-18.575l-1.26336-10.961,27.38475,5.71654Z" class="colorc48b86 svgShape"/><path fill="#ffa59c" d="M811.57353,604.30744s10.16341,76.858,6.35244,130.84913c-3.81113,53.98949-41.92217,205.16231-41.92217,205.16231h-8.8921s-6.98653-240.098,0-267.41148c6.98653-27.31188,8.25785-75.58633,8.25785-75.58633Z" class="colorffa59c svgShape"/><polygon fill="#c48b86" points="793.857 865.067 784.946 903.926 786.759 907.308 795.384 873.307 793.857 865.067" class="colorc48b86 svgShape"/><path fill="#3c89d9" d="M740.91113 591.60437s-31.9075 131.80025-25.238 191.82515c0 0 48.65957 20.95943 125.16473 8.47634 0 0-.99817-124.39813-29.26432-187.59842C811.57353 604.30744 765.20613 598.27386 740.91113 591.60437zM776.28043 938.98114l1.55606 10.1278H739.48113s12.46537-10.102 24.63142-10.11488l2.97646-.00315h0a8.6824 8.6824 0 008.85649.17939z" class="color3c89d9 svgShape"/><rect width="38.355" height="2.87" x="739.481" y="949.109" fill="#3c1e01" class="color3c1e01 svgShape"/><path fill="#3c89d9" d="M804.4722,919.32384l8.16244,6.19707-27.561,26.67133s1.93157-15.92551,10.665-24.39687l2.137-2.07221h0a8.67705,8.67705,0,0,0,6.48827-6.03043Z" class="color3c89d9 svgShape"/><rect width="38.354" height="2.869" x="780.675" y="938.453" fill="#3c1e01" transform="rotate(-44.062 799.851 939.887)" class="color3c1e01 svgShape"/><path fill="#ffa59c" d="M805.556,525.48758c2.33094,12.826,10.22007,15.58411,12.07379,12.83575-.00646-.03893.03081-.04539.02435-.08249.21186-.5776.372-1.223.6147-1.84412.69554-2.2824,1.41543-4.64581,2.08513-7.07863,1.4315-5.23136,2.75632-10.63583,3.73825-15.55661a9.18667,9.18667,0,0,0,.25245-1.24084c1.50752-7.52355,2.25491-13.83542,1.76311-16.72773a3.96217,3.96217,0,0,0-.15206-.66969,11.39377,11.39377,0,0,0-.61139-1.32814c-2.70315-5.22325-10.74268-9.772-11.8086-10.36484a.44659.44659,0,0,1-.12622-.05582s-8.32758,19.27069-8.57505,33.30686A41.973,41.973,0,0,0,805.556,525.48758Z" class="colorffa59c svgShape"/><path fill="#c48b86" d="M805.556,525.48758c2.33094,12.826,10.22007,15.58411,12.07379,12.83575.20556-.61471.40285-1.26817.639-1.92661-.08249-.48848-.17641-.8201-.17641-.8201s-3.2433-33.96679-8.99877-34.5038A84.49592,84.49592,0,0,0,805.556,525.48758Z" class="colorc48b86 svgShape"/><path fill="#ff5847" d="M809.6292,591.18048a64.25476,64.25476,0,0,1,1.18882-29.20435c1.49-5.58734,4.11361-14.26741,6.81178-23.6528-1.85372,2.74836-14.71863-10.66664-14.01663-24.34519-1.074,20.90774-1.61436,62.686-5.92359,76.25122C804.97692,588.76059,809.6292,591.18048,809.6292,591.18048Z" class="colorff5847 svgShape"/><path fill="#3c1e01" d="M742.8167 578.70551s-4.10383 7.52023-2.53634 14.90464c0 0 26.3412 14.72691 71.29317 10.69729 0 0 .57428-11.91858-2.056-15.115C809.51755 589.19243 757.82173 592.04432 742.8167 578.70551zM796.67037 403.35016a66.33476 66.33476 0 00-.44326 26.562c3.24662-2.77421 10.06651-2.111 10.06651-2.111s21.6987-22.39589 12.40227-40.13951c0-.03793-.03562-.03793-.03562-.076-4.06026-7.67-9.23332-12.522-14.71382-15.54535-16.36712-8.95588-35.44036-1.264-35.44036-1.264-34.31447-10.06486-38.20975 37.67091-38.20975 37.67091C758.93784 383.28438 796.67037 403.35016 796.67037 403.35016z" class="color3c1e01 svgShape"/><path fill="#323275" d="M811.62372,487.57631s3.405-3.32911,6.05312-1.53436c1.49941,1.01672-5.70378-5.64962-5.70378-5.64962l-4.22525-.31538,1.1017,4.52936Z" class="color323275 svgShape"/><path fill="#2d6fab" d="M777.79773,615.56775s-7.2567,32.87966-9.19291,42.72455c-1.93472,9.84637-2.49443,17.467,13.66563,24.138C798.43034,689.0981,820.59814,794.528,820.59814,794.528l20.23971-2.62214s.44326-110.00449-24.612-175.99838Z" class="color2d6fab svgShape"/><path fill="#ffa59c" d="M843.79973,606.7323c.5289,4.27047-3.04438,7.61416-14.30949,9.5618-8.81441,1.52541-61.76549-.68428-61.76549-.68428l-3.64615-10.75394s52.10032-15.851,61.89651-13.4213C835.77146,593.86259,842.61885,597.21423,843.79973,606.7323Z" class="colorffa59c svgShape"/><path fill="#ffa59c" d="M817.02967,487.729c9.54076-1.35712,27.13729,47.01125,26.93023,118.52605-.0535,18.326-31.67941-7.027-32.83775-17.82776-1.15653-10.80082-6.85054-57.39465-6.85054-57.39465S799.23272,490.2566,817.02967,487.729Z" class="colorffa59c svgShape"/><path fill="#23100f" d="M788.08571,493.34867c27.83431,10.54523,45.04737.10519,45.04737.10519,12.23563-66.36112-13.13507-103.92139-14.46469-105.79217,0-.03793-.03727-.03793-.03727-.07686-3.51182,28.259-22.433,42.32734-22.433,42.32734C799.55953,443.03117,788.08571,493.34867,788.08571,493.34867Z" class="color23100f svgShape"/><path fill="#ffa59c" d="M795.85027,427.79076c2.90357-2.11427,11.94608-1.93952,13.63333,3.025,2.11742,6.23335-9.07978,18.80871-15.53244,10.74C791.26442,438.19437,793.335,429.62345,795.85027,427.79076Z" class="colorffa59c svgShape"/><path fill="#c48b86" d="M798.97382 431.29364s6.7051-2.59631 6.697.762c-.01292 5.03723-4.90455 7.82353-6.71636 8.00557 0 0 2.28572-2.26783 1.88784-4.86264A6.86944 6.86944 0 00798.97382 431.29364zM811.62686 592.70756s12.26163-1.28441 18.677.165c0 0-15.12959-6.60638-23.95526-44.76429z" class="colorc48b86 svgShape"/><path fill="#ffa59c" d="M614.31641,597.18508a3.80882,3.80882,0,0,0,4.57475.59864,3.86182,3.86182,0,0,0,1.27463,2.4232,3.47777,3.47777,0,0,0,4.81246.11645,3.08661,3.08661,0,0,0,2.37947,2.5153,4.20305,4.20305,0,0,0,3.85155-.57578,2.58913,2.58913,0,0,0,3.30791,2.2145c4.41458-1.61437,6.06622-8.09618,6.86843-12.25666.86384-4.47769.82011-9.52619-3.26434-12.41369-6.0046-4.24463-15.04379-1.43961-19.21239,4.27858-.03081.03247-.06791.03081-.09541.06643C616.51964,586.96186,610.01679,593.72676,614.31641,597.18508Z" class="colorffa59c svgShape"/><path fill="#f29866" d="M621.73162,582.68162s3.6995-.37535,4.66686,2.7111c0,0,3.19-1.26652,3.79656,1.37981,0,0,3.32414.33643,3.89031,2.77106,0,0,3.70115,1.25525,3.99716,4.10217a24.34889,24.34889,0,0,1-.28143,5.9723s2.40217-7.32776,1.35066-8.94875a8.78807,8.78807,0,0,0-3.47306-2.62695s-2.00413-3.37914-3.68492-3.31288c0,0-3.64118-2.27595-4.958-2.11262A3.62759,3.62759,0,0,0,621.73162,582.68162Z" class="colorf29866 svgShape"/><path fill="#ffa59c" d="M620.18848,576.07193c3.44871-1.4898,7.88747-1.55291,11.58531-1.58355.08415,0,.13748.03561.21683.04207,1.90706-.22163,3.95177,1.81976,2.53153,3.82074-1.66787,2.34884-3.7351,5.03889-6.57888,5.16992-1.56583.07288-3.6445-2.04786-5.14241-1.49958-1.96222.71989-2.87442,3.24994-3.56036,5.04535-1.17922,3.0881-6.34433,3.04934-5.65839-.12125C614.3714,583.30594,616.49545,577.67023,620.18848,576.07193Z" class="colorffa59c svgShape"/><polygon fill="#ffa59c" points="640.904 586.158 648.489 583.985 653.494 573.057 625.431 574.784 640.904 586.158" class="colorffa59c svgShape"/><polygon fill="#b0b0b0" points="677.886 618.496 582.407 618.944 568.345 617.379 661.041 616.064 677.886 618.496" class="colorb0b0b0 svgShape"/><path fill="#b0b0b0" d="M589.32918,621.3734s4.649,1.99121,8.25785,1.60791c0,0,9.861-33.47168,24.21582-35.476,14.35636-2.00429,15.37706,32.38472,15.37706,32.38472a13.84924,13.84924,0,0,0,7.70957.22313s-4.26417-35.84635-21.90907-35.712S589.32918,621.3734,589.32918,621.3734Z" class="colorb0b0b0 svgShape"/><polygon fill="#fffffe" points="582.407 618.944 577.53 719.964 686.551 711.531 677.886 618.496 582.407 618.944" class="colorfffffe svgShape"/><polygon fill="#b0b0b0" points="551.55 707.055 577.53 719.964 582.407 618.944 568.345 617.379 551.55 707.055" class="colorb0b0b0 svgShape"/><path fill="#fffffe" d="M597.587,622.98131a19.8549,19.8549,0,0,0,7.19524-.12142s4.77353-32.129,21.05484-35.80262c16.27965-3.67365,24.06856,36.22485,24.06856,36.22485s5.893,1.17127,10.17966-.5241c0,0-13.04132-41.225-33.57687-39.41647C605.97441,585.15171,597.587,622.98131,597.587,622.98131Z" class="colorfffffe svgShape"/><path fill="#ffa59c" d="M640.20639,592.87419c.96736,2.72087-.1504,5.79589-1.75831,8.51195a18.30363,18.30363,0,0,1-3.20455,2.91981c-2.35363,1.616-5.90587-.85092-5.90587-.85092-2.23238,1.10154-4.82057-1.62414-4.82057-1.62414-2.4232,1.21169-5.3122-3.23519-5.3122-3.23519-2.2453.85572-4.44837-1.11776-4.856-2.41028-.2266-.723,2.08016-15.13274,7.4394-14.06831A4.03386,4.03386,0,0,0,627.83,584.668a3.45538,3.45538,0,0,1,3.13829,3.5895,3.04556,3.04556,0,0,1,3.426.22163,4.10737,4.10737,0,0,1,2.022,3.3A2.58184,2.58184,0,0,1,640.20639,592.87419Z" class="colorffa59c svgShape"/><polygon fill="#ff5847" points="794.741 650.88 711.956 636.576 700.013 633.057 780.52 646.181 794.741 650.88" class="colorff5847 svgShape"/><path fill="#ff5847" d="M717.577,639.7463s3.72219,2.43928,6.90719,2.66256c0,0,13.69313-27.48,26.43844-27.00775,12.74514.47242,8.33719,30.42416,8.33719,30.42416a12.199,12.199,0,0,0,6.64514,1.37816s1.82307-31.71006-13.48442-34.30967C737.11292,610.29431,717.577,639.7463,717.577,639.7463Z" class="colorff5847 svgShape"/><polygon fill="#ff8575" points="711.956 636.576 692.184 723.343 787.932 732.814 794.741 650.88 711.956 636.576" class="colorff8575 svgShape"/><polygon fill="#ff5847" points="671.663 708.162 692.184 723.343 711.956 636.576 700.013 633.057 671.663 708.162" class="colorff5847 svgShape"/><path fill="#ff8575" d="M724.48422,642.40886a17.50891,17.50891,0,0,0,6.25207,1.003s9.08143-27.10167,23.74986-27.77783c14.66861-.67765,15.27685,35.08786,15.27685,35.08786s4.92559,1.92,8.90171,1.11131c0,0-4.95475-37.72128-23.02352-39.31461C737.57241,610.92674,724.48422,642.40886,724.48422,642.40886Z" class="colorff8575 svgShape"/><path fill="#ffa59c" d="M776.7333,612.29529a18.23685,18.23685,0,0,0-6.75678,4.01984c-2.08993,6.988-6.59346,9.27209-7.881,9.05046-2.26154-.38976-9.89657-9.01484-10.04051-12.90367-.24267-6.532,19.15407-9.31416,19.15407-9.31416Z" class="colorffa59c svgShape"/><path fill="#ffa59c" d="M753.6369,611.31666a4.21955,4.21955,0,0,1-2.71756.36392c-1.1113-.08895-5.12949,1.65-6.045,2.16447-1.50438.84429-4.5779.65827-3.9405-.96256a11.23862,11.23862,0,0,1,6.23268-5.35261c1.645-.37055,12.048-1.91054,13.70439-.99171C762.474,607.4295,755.01671,610.41241,753.6369,611.31666Z" class="colorffa59c svgShape"/><path fill="#ffa59c" d="M754.724,611.98156a2.67,2.67,0,0,0-.22-.81862,1.92282,1.92282,0,0,0-2.25988-1.12256,2.59705,2.59705,0,0,0-.97547.69239,1.55216,1.55216,0,0,0-.85241.482c-1.79392,1.94433-4.19609,4.48067-5.13761,7.09486-.86218,2.39406.67947,4.45815,2.92312,3.88551C750.93392,621.498,756.78,615.17468,754.724,611.98156Z" class="colorffa59c svgShape"/><path fill="#ffa59c" d="M758.55934,614.2802a2.65416,2.65416,0,0,0-.22-.817,1.92352,1.92352,0,0,0-2.25822-1.12422,2.62629,2.62629,0,0,0-.977.69222,1.55775,1.55775,0,0,0-.85257.48219c-1.79392,1.946-4.19443,4.48067-5.136,7.09487-.86367,2.394.67781,4.45814,2.92146,3.887C754.7709,623.79661,760.617,617.47332,758.55934,614.2802Z" class="colorffa59c svgShape"/><path fill="#ffa59c" d="M763.08539,616.93133a2.64062,2.64062,0,0,0-.22163-.81679,1.92283,1.92283,0,0,0-2.25971-1.12423,2.62265,2.62265,0,0,0-.97548.69074,1.5651,1.5651,0,0,0-.8524.48351c-1.79244,1.9445-4.19295,4.47935-5.136,7.09338-.86218,2.3957.67782,4.45979,2.92146,3.88716C759.2938,626.44791,765.14137,620.12461,763.08539,616.93133Z" class="colorffa59c svgShape"/><path fill="#ffa59c" d="M766.05373,618.96792a2.30733,2.30733,0,0,0-.19413-.72138,1.69347,1.69347,0,0,0-1.99121-.99,2.28874,2.28874,0,0,0-.86052.60824,1.38626,1.38626,0,0,0-.75069.427c-1.5819,1.71475-3.6995,3.95028-4.53086,6.25373-.75865,2.11262.60012,3.93089,2.57675,3.42783C762.71336,627.35862,767.86721,621.78271,766.05373,618.96792Z" class="colorffa59c svgShape"/><path fill="#161228" d="M763.37014 453.97179a9.76231 9.76231 0 002.46842-.30644 12.28927 12.28927 0 007.21794-5.87357.90693.90693 0 00-1.61288-.82988c-.021.03876-2.08015 3.93487-6.07085 4.94828-2.70463.68676-5.71339-.07768-8.95024-2.2728a.90795.90795 0 00-1.01921 1.50289A14.40869 14.40869 0 00763.37014 453.97179zM755.887 421.888c-.41892 2.128-2.11743 3.6493-3.88717 3.40664-1.82937-.25626-3.01356-2.32366-2.572-4.62147.44-2.29864 2.323-3.81428 4.133-3.38328C755.2998 417.70089 756.30443 419.756 755.887 421.888zM778.883 425.01888c-.46414 2.36506-2.352 4.05712-4.319 3.78612-2.03163-.28474-3.3485-2.58255-2.85985-5.13513.49014-2.55588 2.58173-4.24148 4.59232-3.76094C778.23122 420.3666 779.34567 422.65 778.883 425.01888zM760.97443 441.10456a13.74034 13.74034 0 003.046-.262.90825.90825 0 10-.54348-1.7333c-.89133.28143-5.02117.26453-5.9448-.31473.20374-.48517.495-1.019.88156-1.73081a66.4473 66.4473 0 003.973-8.604.90782.90782 0 00-1.692-.65844 65.08084 65.08084 0 01-3.87591 8.39467 19.134 19.134 0 00-1.04008 2.0891 1.53662 1.53662 0 00.31224 1.6581C756.92874 440.8392 759.09636 441.10042 760.97443 441.10456zM786.67359 415.4912a.90878.90878 0 00.62432-1.5708 16.96421 16.96421 0 00-15.19585-4.0707.90756.90756 0 00.46579 1.75434 15.4 15.4 0 0113.48773 3.642A.90584.90584 0 00786.67359 415.4912zM746.29622 411.20119a.91146.91146 0 00.57909-.207c5.58883-4.60292 12.16605-1.8804 12.234-1.85207a.90747.90747 0 10.71028-1.67019c-.31058-.13185-7.66766-3.17622-14.09928 2.12074a.90745.90745 0 00.57594 1.60857z" class="color161228 svgShape"/><path fill="#4d4d4d" d="M998.34356,954.94541H101.65644a1.65644,1.65644,0,1,1,0-3.31288H998.34356a1.65644,1.65644,0,1,1,0,3.31288Z" class="color4d4d4d svgShape"/></svg>